Aleo-Regular Italic.ufo
<glyph name="quotesingle" format="1">
  <advance width="184"/>
  <unicode hex="0027"/>
  <note>
    quotesingle
  </note>
  <outline>
    <contour>
      <point x="156" y="716" type="line"/>
      <point x="79" y="716" type="line"/>
      <point x="61" y="572" type="line"/>
      <point x="60" y="494" type="line"/>
      <point x="61" y="483"/>
      <point x="63" y="475"/>
      <point x="67" y="469" type="curve" smooth="yes"/>
      <point x="71" y="463"/>
      <point x="77" y="460"/>
      <point x="86" y="460" type="curve" smooth="yes"/>
      <point x="96" y="460"/>
      <point x="104" y="463"/>
      <point x="109" y="469" type="curve" smooth="yes"/>
      <point x="114" y="475"/>
      <point x="119" y="483"/>
      <point x="121" y="494" type="curve"/>
      <point x="139" y="572" type="line"/>
    </contour>
  </outline>
</glyph>
<glyph name="parenleft" format="1">
  <advance width="259"/>
  <unicode hex="0028"/>
  <note>
    parenleft
  </note>
  <outline>
    <contour>
      <point x="116" y="385"/>
      <point x="134" y="455"/>
      <point x="160" y="522" type="curve" smooth="yes"/>
      <point x="186" y="589"/>
      <point x="221" y="653"/>
      <point x="263" y="714" type="curve" smooth="yes"/>
      <point x="267" y="720"/>
      <point x="269" y="727"/>
      <point x="270" y="732" type="curve" smooth="yes"/>
      <point x="271" y="737"/>
      <point x="270" y="740"/>
      <point x="268" y="743" type="curve" smooth="yes"/>
      <point x="266" y="746"/>
      <point x="263" y="749"/>
      <point x="260" y="751" type="curve" smooth="yes"/>
      <point x="224" y="776" type="line"/>
      <point x="194" y="737"/>
      <point x="168" y="699"/>
      <point x="146" y="661" type="curve" smooth="yes"/>
      <point x="124" y="623"/>
      <point x="104" y="586"/>
      <point x="89" y="548" type="curve" smooth="yes"/>
      <point x="74" y="510"/>
      <point x="62" y="472"/>
      <point x="52" y="433" type="curve" smooth="yes"/>
      <point x="42" y="394"/>
      <point x="35" y="354"/>
      <point x="30" y="314" type="curve" smooth="yes"/>
      <point x="25" y="273"/>
      <point x="23" y="234"/>
      <point x="23" y="196" type="curve" smooth="yes"/>
      <point x="23" y="158"/>
      <point x="26" y="119"/>
      <point x="32" y="81" type="curve" smooth="yes"/>
      <point x="38" y="43"/>
      <point x="48" y="6"/>
      <point x="61" y="-32" type="curve" smooth="yes"/>
      <point x="74" y="-70"/>
      <point x="90" y="-108"/>
      <point x="110" y="-146" type="curve"/>
      <point x="153" y="-122" type="line"/>
      <point x="157" y="-120"/>
      <point x="160" y="-117"/>
      <point x="163" y="-114" type="curve" smooth="yes"/>
      <point x="166" y="-111"/>
      <point x="167" y="-108"/>
      <point x="168" y="-103" type="curve"/>
      <point x="168" y="-95" type="line" smooth="yes"/>
      <point x="168" y="-92"/>
      <point x="167" y="-90"/>
      <point x="165" y="-86" type="curve"/>
      <point x="138" y="-25"/>
      <point x="119" y="40"/>
      <point x="109" y="107" type="curve" smooth="yes"/>
      <point x="99" y="174"/>
      <point x="98" y="243"/>
      <point x="107" y="314" type="curve" smooth="yes"/>
    </contour>
  </outline>
</glyph>
<glyph name="comma" format="1">
  <advance width="229"/>
  <unicode hex="002C"/>
  <note>
    comma
  </note>
  <outline>
    <contour>
      <point x="50" y="53"/>
      <point x="51" y="45"/>
      <point x="53" y="37" type="curve" smooth="yes"/>
      <point x="55" y="29"/>
      <point x="58" y="23"/>
      <point x="62" y="17" type="curve" smooth="yes"/>
      <point x="66" y="11"/>
      <point x="72" y="7"/>
      <point x="79" y="4" type="curve" smooth="yes"/>
      <point x="86" y="1"/>
      <point x="93" y="0"/>
      <point x="102" y="0" type="curve" smooth="yes"/>
      <point x="108" y="0" type="line"/>
      <point x="105" y="-11"/>
      <point x="101" y="-21"/>
      <point x="95" y="-31" type="curve" smooth="yes"/>
      <point x="89" y="-41"/>
      <point x="83" y="-50"/>
      <point x="77" y="-58" type="curve" smooth="yes"/>
      <point x="71" y="-66"/>
      <point x="64" y="-73"/>
      <point x="58" y="-79" type="curve" smooth="yes"/>
      <point x="52" y="-85"/>
      <point x="48" y="-90"/>
      <point x="44" y="-94" type="curve" smooth="yes"/>
      <point x="39" y="-99"/>
      <point x="36" y="-103"/>
      <point x="35" y="-107" type="curve"/>
      <point x="34" y="-112"/>
      <point x="36" y="-117"/>
      <point x="40" y="-121" type="curve"/>
      <point x="53" y="-136" type="line"/>
      <point x="70" y="-123"/>
      <point x="84" y="-109"/>
      <point x="98" y="-94" type="curve" smooth="yes"/>
      <point x="112" y="-79"/>
      <point x="124" y="-64"/>
      <point x="134" y="-48" type="curve" smooth="yes"/>
      <point x="144" y="-32"/>
      <point x="152" y="-16"/>
      <point x="158" y="0" type="curve" smooth="yes"/>
      <point x="164" y="16"/>
      <point x="169" y="32"/>
      <point x="171" y="47" type="curve" smooth="yes"/>
      <point x="172" y="57"/>
      <point x="172" y="67"/>
      <point x="170" y="75" type="curve" smooth="yes"/>
      <point x="168" y="83"/>
      <point x="165" y="91"/>
      <point x="161" y="97" type="curve" smooth="yes"/>
      <point x="157" y="103"/>
      <point x="150" y="109"/>
      <point x="143" y="113" type="curve" smooth="yes"/>
      <point x="136" y="117"/>
      <point x="127" y="118"/>
      <point x="117" y="118" type="curve" smooth="yes"/>
      <point x="108" y="118"/>
      <point x="101" y="117"/>
      <point x="93" y="114" type="curve" smooth="yes"/>
      <point x="85" y="111"/>
      <point x="78" y="106"/>
      <point x="72" y="101" type="curve" smooth="yes"/>
      <point x="66" y="96"/>
      <point x="62" y="90"/>
      <point x="58" y="83" type="curve" smooth="yes"/>
      <point x="54" y="76"/>
      <point x="52" y="70"/>
      <point x="51" y="62" type="curve" smooth="yes"/>
    </contour>
  </outline>
</glyph>
<glyph name="slash" format="1">
  <advance width="462"/>
  <unicode hex="002F"/>
  <note>
    slash
  </note>
  <outline>
    <contour>
      <point x="469" y="736" type="line"/>
      <point x="431" y="736" type="line" smooth="yes"/>
      <point x="420" y="736"/>
      <point x="411" y="734"/>
      <point x="402" y="728" type="curve" smooth="yes"/>
      <point x="393" y="722"/>
      <point x="386" y="715"/>
      <point x="380" y="704" type="curve" smooth="yes"/>
      <point x="-12" y="-45" type="line"/>
      <point x="26" y="-45" type="line" smooth="yes"/>
      <point x="36" y="-45"/>
      <point x="45" y="-42"/>
      <point x="55" y="-36" type="curve" smooth="yes"/>
      <point x="65" y="-30"/>
      <point x="73" y="-22"/>
      <point x="79" y="-10" type="curve" smooth="yes"/>
    </contour>
  </outline>
</glyph>
<glyph name="I" format="1">
  <advance width="294"/>
  <unicode hex="0049"/>
  <note>
    I
  </note>
  <outline>
    <contour>
      <point x="297" y="655" type="line" smooth="yes"/>
      <point x="308" y="657"/>
      <point x="314" y="664"/>
      <point x="315" y="674" type="curve" smooth="yes"/>
      <point x="320" y="716" type="line"/>
      <point x="79" y="716" type="line"/>
      <point x="74" y="674" type="line" smooth="yes"/>
      <point x="73" y="664"/>
      <point x="75" y="658"/>
      <point x="83" y="656" type="curve" smooth="yes"/>
      <point x="91" y="654"/>
      <point x="111" y="650"/>
      <point x="142" y="644" type="curve"/>
      <point x="72" y="73" type="line"/>
      <point x="14" y="62" type="line" smooth="yes"/>
      <point x="4" y="60"/>
      <point x="-3" y="53"/>
      <point x="-4" y="43" type="curve" smooth="yes"/>
      <point x="-9" y="0" type="line"/>
      <point x="232" y="0" type="line"/>
      <point x="238" y="43" type="line"/>
      <point x="239" y="53"/>
      <point x="236" y="59"/>
      <point x="228" y="61" type="curve" smooth="yes"/>
      <point x="220" y="63"/>
      <point x="201" y="67"/>
      <point x="169" y="73" type="curve"/>
      <point x="239" y="644" type="line"/>
    </contour>
    <contour>
      <point x="235" y="10" type="move" name="ogonek"/>
    </contour>
    <contour>
      <point x="203" y="716" type="move" name="top"/>
    </contour>
    <contour>
      <point x="76" y="716" type="move" name="topleft"/>
    </contour>
    <contour>
      <point x="117" y="0" type="move" name="bottom"/>
    </contour>
  </outline>
</glyph>
<glyph name="e" format="1">
  <advance width="436"/>
  <unicode hex="0065"/>
  <note>
    e
  </note>
  <outline>
    <contour>
      <point x="383" y="121" type="line" smooth="yes"/>
      <point x="378" y="127"/>
      <point x="372" y="129"/>
      <point x="366" y="129" type="curve" smooth="yes"/>
      <point x="361" y="129"/>
      <point x="355" y="127"/>
      <point x="350" y="124" type="curve" smooth="yes"/>
      <point x="337" y="116"/>
      <point x="325" y="106"/>
      <point x="312" y="96" type="curve" smooth="yes"/>
      <point x="287" y="77"/>
      <point x="254" y="63"/>
      <point x="210" y="63" type="curve" smooth="yes"/>
      <point x="128" y="63"/>
      <point x="93" y="115"/>
      <point x="93" y="200" type="curve" smooth="yes"/>
      <point x="93" y="211" type="line"/>
      <point x="93" y="222" type="line"/>
      <point x="159" y="229"/>
      <point x="213" y="237"/>
      <point x="255" y="248" type="curve" smooth="yes"/>
      <point x="297" y="259"/>
      <point x="330" y="272"/>
      <point x="354" y="287" type="curve" smooth="yes"/>
      <point x="394" y="311"/>
      <point x="417" y="342"/>
      <point x="417" y="398" type="curve" smooth="yes"/>
      <point x="417" y="410"/>
      <point x="414" y="423"/>
      <point x="408" y="437" type="curve" smooth="yes"/>
      <point x="388" y="484"/>
      <point x="338" y="513"/>
      <point x="269" y="513" type="curve" smooth="yes"/>
      <point x="178" y="513"/>
      <point x="117" y="468"/>
      <point x="77" y="415" type="curve" smooth="yes"/>
      <point x="37" y="362"/>
      <point x="6" y="289"/>
      <point x="6" y="198" type="curve" smooth="yes"/>
      <point x="6" y="167"/>
      <point x="10" y="138"/>
      <point x="19" y="113" type="curve" smooth="yes"/>
      <point x="43" y="42"/>
      <point x="98" y="-7"/>
      <point x="192" y="-7" type="curve" smooth="yes"/>
      <point x="295" y="-7"/>
      <point x="353" y="40"/>
      <point x="405" y="94" type="curve"/>
    </contour>
    <contour>
      <point x="337" y="360"/>
      <point x="322" y="344"/>
      <point x="296" y="329" type="curve"/>
      <point x="279" y="320"/>
      <point x="256" y="311"/>
      <point x="225" y="303" type="curve" smooth="yes"/>
      <point x="194" y="295"/>
      <point x="152" y="287"/>
      <point x="101" y="281" type="curve"/>
      <point x="106" y="305"/>
      <point x="114" y="327"/>
      <point x="124" y="347" type="curve" smooth="yes"/>
      <point x="148" y="399"/>
      <point x="191" y="449"/>
      <point x="264" y="449" type="curve" smooth="yes"/>
      <point x="303" y="449"/>
      <point x="337" y="431"/>
      <point x="337" y="394" type="curve" smooth="yes"/>
    </contour>
    <contour>
      <point x="362" y="10" type="move" name="ogonek"/>
    </contour>
    <contour>
      <point x="188" y="0" type="move" name="bottom"/>
    </contour>
    <contour>
      <point x="248" y="506" type="move" name="top"/>
    </contour>
  </outline>
</glyph>
<glyph name="m" format="1">
  <advance width="843"/>
  <unicode hex="006D"/>
  <note>
    m
  </note>
  <outline>
    <contour>
      <point x="434" y="471"/>
      <point x="399" y="515"/>
      <point x="328" y="515" type="curve" smooth="yes"/>
      <point x="275" y="515"/>
      <point x="224" y="488"/>
      <point x="175" y="436" type="curve"/>
      <point x="175" y="488" type="line"/>
      <point x="173" y="500"/>
      <point x="166" y="507"/>
      <point x="153" y="507" type="curve" smooth="yes"/>
      <point x="28" y="507" type="line"/>
      <point x="23" y="464" type="line" smooth="yes"/>
      <point x="22" y="454"/>
      <point x="25" y="447"/>
      <point x="35" y="445" type="curve" smooth="yes"/>
      <point x="41" y="444"/>
      <point x="60" y="440"/>
      <point x="91" y="434" type="curve"/>
      <point x="38" y="0" type="line"/>
      <point x="127" y="0" type="line"/>
      <point x="173" y="378" type="line"/>
      <point x="212" y="422"/>
      <point x="253" y="444"/>
      <point x="294" y="444" type="curve" smooth="yes"/>
      <point x="358" y="444"/>
      <point x="385" y="404"/>
      <point x="375" y="323" type="curve" smooth="yes"/>
      <point x="336" y="0" type="line"/>
      <point x="425" y="0" type="line"/>
      <point x="464" y="323" type="line" smooth="yes"/>
      <point x="472" y="390"/>
      <point x="517" y="444"/>
      <point x="588" y="444" type="curve" smooth="yes"/>
      <point x="658" y="444"/>
      <point x="684" y="398"/>
      <point x="675" y="323" type="curve" smooth="yes"/>
      <point x="635" y="0" type="line"/>
      <point x="797" y="0" type="line"/>
      <point x="802" y="43" type="line" smooth="yes"/>
      <point x="803" y="53"/>
      <point x="799" y="60"/>
      <point x="789" y="62" type="curve" smooth="yes"/>
      <point x="783" y="63"/>
      <point x="765" y="67"/>
      <point x="733" y="73" type="curve"/>
      <point x="764" y="323" type="line" smooth="yes"/>
      <point x="779" y="444"/>
      <point x="730" y="515"/>
      <point x="612" y="515" type="curve" smooth="yes"/>
      <point x="534" y="515"/>
      <point x="472" y="465"/>
      <point x="444" y="409" type="curve"/>
    </contour>
    <contour>
      <point x="452" y="506" type="move" name="top"/>
    </contour>
    <contour>
      <point x="392" y="0" type="move" name="bottom"/>
    </contour>
  </outline>
</glyph>
<glyph name="o" format="1">
  <advance width="516"/>
  <unicode hex="006F"/>
  <note>
    o
  </note>
  <outline>
    <contour>
      <point x="245" y="514"/>
      <point x="211" y="508"/>
      <point x="180" y="496" type="curve" smooth="yes"/>
      <point x="149" y="484"/>
      <point x="121" y="467"/>
      <point x="97" y="444" type="curve" smooth="yes"/>
      <point x="73" y="421"/>
      <point x="54" y="393"/>
      <point x="39" y="361" type="curve" smooth="yes"/>
      <point x="24" y="329"/>
      <point x="13" y="294"/>
      <point x="8" y="254" type="curve" smooth="yes"/>
      <point x="3" y="214"/>
      <point x="5" y="178"/>
      <point x="12" y="146" type="curve" smooth="yes"/>
      <point x="19" y="114"/>
      <point x="33" y="87"/>
      <point x="51" y="64" type="curve" smooth="yes"/>
      <point x="69" y="41"/>
      <point x="92" y="23"/>
      <point x="120" y="11" type="curve" smooth="yes"/>
      <point x="148" y="-1"/>
      <point x="181" y="-7"/>
      <point x="218" y="-7" type="curve" smooth="yes"/>
      <point x="255" y="-7"/>
      <point x="290" y="-1"/>
      <point x="321" y="11" type="curve" smooth="yes"/>
      <point x="352" y="23"/>
      <point x="379" y="41"/>
      <point x="403" y="64" type="curve" smooth="yes"/>
      <point x="427" y="87"/>
      <point x="446" y="114"/>
      <point x="461" y="146" type="curve" smooth="yes"/>
      <point x="476" y="178"/>
      <point x="486" y="214"/>
      <point x="491" y="254" type="curve" smooth="yes"/>
      <point x="496" y="294"/>
      <point x="495" y="329"/>
      <point x="488" y="361" type="curve" smooth="yes"/>
      <point x="481" y="393"/>
      <point x="468" y="421"/>
      <point x="450" y="444" type="curve" smooth="yes"/>
      <point x="432" y="467"/>
      <point x="408" y="484"/>
      <point x="380" y="496" type="curve" smooth="yes"/>
      <point x="352" y="508"/>
      <point x="319" y="514"/>
      <point x="282" y="514" type="curve" smooth="yes"/>
    </contour>
    <contour>
      <point x="202" y="63"/>
      <point x="181" y="67"/>
      <point x="163" y="76" type="curve" smooth="yes"/>
      <point x="145" y="85"/>
      <point x="131" y="97"/>
      <point x="120" y="113" type="curve" smooth="yes"/>
      <point x="109" y="129"/>
      <point x="103" y="148"/>
      <point x="100" y="172" type="curve" smooth="yes"/>
      <point x="97" y="196"/>
      <point x="96" y="223"/>
      <point x="100" y="253" type="curve" smooth="yes"/>
      <point x="104" y="283"/>
      <point x="111" y="310"/>
      <point x="120" y="334" type="curve" smooth="yes"/>
      <point x="129" y="358"/>
      <point x="140" y="378"/>
      <point x="155" y="394" type="curve" smooth="yes"/>
      <point x="170" y="410"/>
      <point x="186" y="423"/>
      <point x="206" y="432" type="curve" smooth="yes"/>
      <point x="226" y="441"/>
      <point x="249" y="445"/>
      <point x="274" y="445" type="curve" smooth="yes"/>
      <point x="324" y="445"/>
      <point x="359" y="428"/>
      <point x="380" y="394" type="curve" smooth="yes"/>
      <point x="401" y="360"/>
      <point x="406" y="313"/>
      <point x="399" y="253" type="curve" smooth="yes"/>
      <point x="392" y="193"/>
      <point x="374" y="147"/>
      <point x="345" y="113" type="curve" smooth="yes"/>
      <point x="316" y="79"/>
      <point x="277" y="63"/>
      <point x="227" y="63" type="curve" smooth="yes"/>
    </contour>
    <contour>
      <point x="228" y="0" type="move" name="bottom"/>
    </contour>
    <contour>
      <point x="434" y="10" type="move" name="ogonek"/>
    </contour>
    <contour>
      <point x="288" y="506" type="move" name="top"/>
    </contour>
    <contour>
      <point x="526" y="506" type="move" name="topright"/>
    </contour>
    <contour>
      <point x="258" y="253" type="move" name="center"/>
    </contour>
  </outline>
</glyph>
<glyph name="r" format="1">
  <advance width="392"/>
  <unicode hex="0072"/>
  <note>
    r
  </note>
  <outline>
    <contour>
      <point x="28" y="506" type="line"/>
      <point x="23" y="463" type="line" smooth="yes"/>
      <point x="22" y="453"/>
      <point x="25" y="447"/>
      <point x="35" y="445" type="curve" smooth="yes"/>
      <point x="41" y="444"/>
      <point x="60" y="439"/>
      <point x="91" y="433" type="curve"/>
      <point x="38" y="0" type="line"/>
      <point x="127" y="0" type="line"/>
      <point x="166" y="322" type="line"/>
      <point x="203" y="392"/>
      <point x="251" y="428"/>
      <point x="309" y="428" type="curve" smooth="yes"/>
      <point x="326" y="428"/>
      <point x="340" y="426"/>
      <point x="349" y="423" type="curve" smooth="yes"/>
      <point x="358" y="420"/>
      <point x="367" y="418"/>
      <point x="373" y="418" type="curve" smooth="yes"/>
      <point x="379" y="418"/>
      <point x="384" y="423"/>
      <point x="387" y="431" type="curve"/>
      <point x="407" y="498" type="line"/>
      <point x="388" y="510"/>
      <point x="366" y="515"/>
      <point x="340" y="515" type="curve" smooth="yes"/>
      <point x="274" y="515"/>
      <point x="218" y="478"/>
      <point x="172" y="403" type="curve"/>
      <point x="175" y="482" type="line"/>
      <point x="175" y="500"/>
      <point x="170" y="506"/>
      <point x="151" y="506" type="curve" smooth="yes"/>
    </contour>
    <contour>
      <point x="226" y="506" type="move" name="top"/>
    </contour>
    <contour>
      <point x="166" y="0" type="move" name="bottom"/>
    </contour>
  </outline>
</glyph>
<glyph name="x" format="1">
  <advance width="553"/>
  <unicode hex="0078"/>
  <note>
    x
  </note>
  <outline>
    <contour>
      <point x="338" y="264" type="line"/>
      <point x="479" y="434" type="line"/>
      <point x="504" y="439"/>
      <point x="521" y="443"/>
      <point x="532" y="445" type="curve" smooth="yes"/>
      <point x="543" y="447"/>
      <point x="549" y="454"/>
      <point x="550" y="464" type="curve"/>
      <point x="556" y="506" type="line"/>
      <point x="357" y="506" type="line"/>
      <point x="352" y="464" type="line" smooth="yes"/>
      <point x="351" y="454"/>
      <point x="355" y="447"/>
      <point x="365" y="445" type="curve"/>
      <point x="366" y="445"/>
      <point x="369" y="444"/>
      <point x="375" y="443" type="curve" smooth="yes"/>
      <point x="381" y="442"/>
      <point x="386" y="441"/>
      <point x="390" y="440" type="curve"/>
      <point x="303" y="331" type="line" smooth="yes"/>
      <point x="296" y="322"/>
      <point x="291" y="312"/>
      <point x="287" y="303" type="curve"/>
      <point x="214" y="440" type="line"/>
      <point x="227" y="443"/>
      <point x="235" y="445"/>
      <point x="236" y="445" type="curve"/>
      <point x="247" y="447"/>
      <point x="252" y="454"/>
      <point x="253" y="464" type="curve"/>
      <point x="259" y="506" type="line"/>
      <point x="60" y="506" type="line"/>
      <point x="55" y="464" type="line" smooth="yes"/>
      <point x="54" y="454"/>
      <point x="58" y="447"/>
      <point x="68" y="445" type="curve" smooth="yes"/>
      <point x="74" y="444"/>
      <point x="90" y="440"/>
      <point x="118" y="434" type="curve"/>
      <point x="217" y="260" type="line"/>
      <point x="66" y="71" type="line"/>
      <point x="61" y="70"/>
      <point x="53" y="68"/>
      <point x="41" y="66" type="curve" smooth="yes"/>
      <point x="29" y="64"/>
      <point x="21" y="63"/>
      <point x="16" y="62" type="curve" smooth="yes"/>
      <point x="6" y="60"/>
      <point x="0" y="53"/>
      <point x="-1" y="43" type="curve" smooth="yes"/>
      <point x="-6" y="0" type="line"/>
      <point x="192" y="0" type="line"/>
      <point x="198" y="43" type="line"/>
      <point x="199" y="53"/>
      <point x="195" y="60"/>
      <point x="185" y="62" type="curve"/>
      <point x="184" y="62"/>
      <point x="177" y="63"/>
      <point x="167" y="65" type="curve" smooth="yes"/>
      <point x="162" y="66"/>
      <point x="159" y="67"/>
      <point x="156" y="68" type="curve"/>
      <point x="255" y="191" type="line" smooth="yes"/>
      <point x="261" y="199"/>
      <point x="265" y="207"/>
      <point x="269" y="217" type="curve"/>
      <point x="348" y="66" type="line"/>
      <point x="334" y="63"/>
      <point x="325" y="63"/>
      <point x="322" y="62" type="curve"/>
      <point x="311" y="60"/>
      <point x="305" y="53"/>
      <point x="304" y="43" type="curve" smooth="yes"/>
      <point x="299" y="0" type="line"/>
      <point x="498" y="0" type="line"/>
      <point x="503" y="43" type="line" smooth="yes"/>
      <point x="504" y="53"/>
      <point x="500" y="60"/>
      <point x="488" y="62" type="curve" smooth="yes"/>
      <point x="476" y="64"/>
      <point x="461" y="67"/>
      <point x="444" y="71" type="curve"/>
    </contour>
    <contour>
      <point x="307" y="506" type="move" name="top"/>
    </contour>
    <contour>
      <point x="247" y="0" type="move" name="bottom"/>
    </contour>
  </outline>
</glyph>
<glyph name="z" format="1">
  <advance width="458"/>
  <unicode hex="007A"/>
  <note>
    z
  </note>
  <outline>
    <contour>
      <point x="127" y="506" type="line"/>
      <point x="77" y="506" type="line"/>
      <point x="59" y="363" type="line"/>
      <point x="95" y="363" type="line" smooth="yes"/>
      <point x="103" y="363"/>
      <point x="108" y="368"/>
      <point x="111" y="376" type="curve"/>
      <point x="112" y="380"/>
      <point x="116" y="399"/>
      <point x="124" y="436" type="curve"/>
      <point x="341" y="436" type="line"/>
      <point x="20" y="69" type="line" smooth="yes"/>
      <point x="10" y="58"/>
      <point x="5" y="47"/>
      <point x="4" y="37" type="curve" smooth="yes"/>
      <point x="-1" y="0" type="line"/>
      <point x="386" y="0" type="line"/>
      <point x="404" y="148" type="line"/>
      <point x="369" y="148" type="line" smooth="yes"/>
      <point x="360" y="148"/>
      <point x="355" y="144"/>
      <point x="352" y="136" type="curve"/>
      <point x="351" y="132"/>
      <point x="346" y="111"/>
      <point x="338" y="70" type="curve"/>
      <point x="113" y="70" type="line"/>
      <point x="431" y="434" type="line" smooth="yes"/>
      <point x="441" y="445"/>
      <point x="447" y="456"/>
      <point x="448" y="468" type="curve"/>
      <point x="453" y="506" type="line"/>
    </contour>
    <contour>
      <point x="259" y="506" type="move" name="top"/>
    </contour>
    <contour>
      <point x="199" y="0" type="move" name="bottom"/>
    </contour>
  </outline>
</glyph>
<glyph name="section" format="1">
  <advance width="468"/>
  <unicode hex="00A7"/>
  <note>
    section
  </note>
  <outline>
    <contour>
      <point x="449" y="665" type="line"/>
      <point x="432" y="683"/>
      <point x="411" y="698"/>
      <point x="386" y="708" type="curve" smooth="yes"/>
      <point x="361" y="718"/>
      <point x="331" y="724"/>
      <point x="298" y="724" type="curve" smooth="yes"/>
      <point x="269" y="724"/>
      <point x="243" y="720"/>
      <point x="220" y="712" type="curve" smooth="yes"/>
      <point x="197" y="704"/>
      <point x="177" y="693"/>
      <point x="160" y="680" type="curve" smooth="yes"/>
      <point x="143" y="667"/>
      <point x="129" y="651"/>
      <point x="119" y="633" type="curve" smooth="yes"/>
      <point x="109" y="615"/>
      <point x="102" y="596"/>
      <point x="100" y="577" type="curve" smooth="yes"/>
      <point x="97" y="552"/>
      <point x="100" y="531"/>
      <point x="108" y="513" type="curve" smooth="yes"/>
      <point x="116" y="495"/>
      <point x="128" y="481"/>
      <point x="143" y="468" type="curve"/>
      <point x="111" y="456"/>
      <point x="86" y="440"/>
      <point x="69" y="419" type="curve" smooth="yes"/>
      <point x="52" y="398"/>
      <point x="42" y="375"/>
      <point x="39" y="349" type="curve" smooth="yes"/>
      <point x="36" y="328"/>
      <point x="39" y="310"/>
      <point x="45" y="294" type="curve" smooth="yes"/>
      <point x="51" y="278"/>
      <point x="61" y="265"/>
      <point x="73" y="253" type="curve" smooth="yes"/>
      <point x="85" y="241"/>
      <point x="99" y="231"/>
      <point x="115" y="223" type="curve" smooth="yes"/>
      <point x="131" y="215"/>
      <point x="149" y="206"/>
      <point x="166" y="199" type="curve" smooth="yes"/>
      <point x="183" y="192"/>
      <point x="201" y="185"/>
      <point x="217" y="178" type="curve" smooth="yes"/>
      <point x="233" y="171"/>
      <point x="248" y="162"/>
      <point x="261" y="154" type="curve" smooth="yes"/>
      <point x="274" y="146"/>
      <point x="283" y="136"/>
      <point x="290" y="125" type="curve" smooth="yes"/>
      <point x="297" y="114"/>
      <point x="300" y="101"/>
      <point x="298" y="86" type="curve" smooth="yes"/>
      <point x="296" y="73"/>
      <point x="292" y="62"/>
      <point x="286" y="52" type="curve" smooth="yes"/>
      <point x="280" y="42"/>
      <point x="273" y="33"/>
      <point x="263" y="25" type="curve" smooth="yes"/>
      <point x="253" y="17"/>
      <point x="241" y="11"/>
      <point x="227" y="7" type="curve" smooth="yes"/>
      <point x="213" y="3"/>
      <point x="199" y="1"/>
      <point x="182" y="1" type="curve" smooth="yes"/>
      <point x="161" y="1"/>
      <point x="144" y="3"/>
      <point x="130" y="8" type="curve" smooth="yes"/>
      <point x="116" y="13"/>
      <point x="105" y="18"/>
      <point x="96" y="24" type="curve" smooth="yes"/>
      <point x="87" y="30"/>
      <point x="79" y="35"/>
      <point x="73" y="40" type="curve" smooth="yes"/>
      <point x="67" y="45"/>
      <point x="61" y="46"/>
      <point x="55" y="46" type="curve" smooth="yes"/>
      <point x="49" y="46"/>
      <point x="45" y="45"/>
      <point x="41" y="43" type="curve" smooth="yes"/>
      <point x="37" y="41"/>
      <point x="33" y="37"/>
      <point x="30" y="33" type="curve" smooth="yes"/>
      <point x="5" y="-1" type="line"/>
      <point x="23" y="-19"/>
      <point x="46" y="-33"/>
      <point x="73" y="-45" type="curve" smooth="yes"/>
      <point x="100" y="-57"/>
      <point x="131" y="-63"/>
      <point x="166" y="-63" type="curve" smooth="yes"/>
      <point x="197" y="-63"/>
      <point x="225" y="-58"/>
      <point x="250" y="-50" type="curve" smooth="yes"/>
      <point x="275" y="-42"/>
      <point x="296" y="-30"/>
      <point x="314" y="-16" type="curve" smooth="yes"/>
      <point x="332" y="-2"/>
      <point x="346" y="16"/>
      <point x="357" y="36" type="curve" smooth="yes"/>
      <point x="368" y="56"/>
      <point x="374" y="77"/>
      <point x="377" y="100" type="curve" smooth="yes"/>
      <point x="380" y="123"/>
      <point x="377" y="144"/>
      <point x="369" y="160" type="curve" smooth="yes"/>
      <point x="361" y="176"/>
      <point x="349" y="190"/>
      <point x="334" y="202" type="curve"/>
      <point x="364" y="215"/>
      <point x="386" y="232"/>
      <point x="402" y="253" type="curve" smooth="yes"/>
      <point x="418" y="274"/>
      <point x="428" y="299"/>
      <point x="431" y="326" type="curve" smooth="yes"/>
      <point x="433" y="346"/>
      <point x="431" y="364"/>
      <point x="425" y="379" type="curve" smooth="yes"/>
      <point x="419" y="394"/>
      <point x="410" y="408"/>
      <point x="398" y="420" type="curve" smooth="yes"/>
      <point x="386" y="432"/>
      <point x="373" y="442"/>
      <point x="357" y="451" type="curve" smooth="yes"/>
      <point x="341" y="460"/>
      <point x="325" y="468"/>
      <point x="308" y="476" type="curve" smooth="yes"/>
      <point x="291" y="484"/>
      <point x="275" y="492"/>
      <point x="259" y="499" type="curve" smooth="yes"/>
      <point x="243" y="506"/>
      <point x="228" y="513"/>
      <point x="216" y="521" type="curve" smooth="yes"/>
      <point x="204" y="529"/>
      <point x="195" y="537"/>
      <point x="188" y="547" type="curve" smooth="yes"/>
      <point x="181" y="557"/>
      <point x="177" y="567"/>
      <point x="179" y="580" type="curve"/>
      <point x="180" y="590"/>
      <point x="184" y="601"/>
      <point x="190" y="610" type="curve" smooth="yes"/>
      <point x="196" y="619"/>
      <point x="203" y="627"/>
      <point x="213" y="634" type="curve" smooth="yes"/>
      <point x="223" y="641"/>
      <point x="235" y="647"/>
      <point x="248" y="651" type="curve" smooth="yes"/>
      <point x="261" y="655"/>
      <point x="276" y="657"/>
      <point x="292" y="657" type="curve" smooth="yes"/>
      <point x="309" y="657"/>
      <point x="324" y="656"/>
      <point x="336" y="652" type="curve" smooth="yes"/>
      <point x="348" y="648"/>
      <point x="358" y="643"/>
      <point x="367" y="639" type="curve" smooth="yes"/>
      <point x="376" y="635"/>
      <point x="383" y="631"/>
      <point x="389" y="627" type="curve" smooth="yes"/>
      <point x="395" y="623"/>
      <point x="400" y="621"/>
      <point x="405" y="621" type="curve" smooth="yes"/>
      <point x="413" y="621"/>
      <point x="420" y="625"/>
      <point x="425" y="632" type="curve" smooth="yes"/>
    </contour>
    <contour>
      <point x="122" y="379"/>
      <point x="128" y="393"/>
      <point x="138" y="405" type="curve" smooth="yes"/>
      <point x="148" y="417"/>
      <point x="166" y="428"/>
      <point x="189" y="438" type="curve"/>
      <point x="202" y="431"/>
      <point x="215" y="426"/>
      <point x="228" y="420" type="curve" smooth="yes"/>
      <point x="241" y="414"/>
      <point x="254" y="408"/>
      <point x="266" y="402" type="curve" smooth="yes"/>
      <point x="278" y="396"/>
      <point x="290" y="390"/>
      <point x="301" y="384" type="curve" smooth="yes"/>
      <point x="312" y="378"/>
      <point x="321" y="371"/>
      <point x="329" y="363" type="curve" smooth="yes"/>
      <point x="337" y="355"/>
      <point x="343" y="346"/>
      <point x="347" y="337" type="curve" smooth="yes"/>
      <point x="351" y="328"/>
      <point x="351" y="317"/>
      <point x="350" y="305" type="curve"/>
      <point x="348" y="289"/>
      <point x="343" y="275"/>
      <point x="333" y="263" type="curve" smooth="yes"/>
      <point x="323" y="251"/>
      <point x="309" y="240"/>
      <point x="290" y="231" type="curve"/>
      <point x="271" y="241"/>
      <point x="251" y="251"/>
      <point x="230" y="260" type="curve" smooth="yes"/>
      <point x="209" y="269"/>
      <point x="190" y="278"/>
      <point x="173" y="288" type="curve" smooth="yes"/>
      <point x="156" y="298"/>
      <point x="142" y="308"/>
      <point x="132" y="320" type="curve" smooth="yes"/>
      <point x="122" y="332"/>
      <point x="118" y="346"/>
      <point x="120" y="363" type="curve" smooth="yes"/>
    </contour>
  </outline>
</glyph>
<glyph name="copyright" format="1">
  <advance width="790"/>
  <unicode hex="00A9"/>
  <note>
    copyright
  </note>
  <outline>
    <contour>
      <point x="474" y="220" type="line" smooth="yes"/>
      <point x="467" y="216"/>
      <point x="459" y="211"/>
      <point x="451" y="208" type="curve" smooth="yes"/>
      <point x="443" y="205"/>
      <point x="433" y="202"/>
      <point x="422" y="200" type="curve" smooth="yes"/>
      <point x="411" y="198"/>
      <point x="397" y="198"/>
      <point x="381" y="198" type="curve" smooth="yes"/>
      <point x="360" y="198"/>
      <point x="342" y="201"/>
      <point x="325" y="208" type="curve" smooth="yes"/>
      <point x="308" y="215"/>
      <point x="294" y="226"/>
      <point x="283" y="240" type="curve" smooth="yes"/>
      <point x="272" y="254"/>
      <point x="265" y="270"/>
      <point x="260" y="290" type="curve" smooth="yes"/>
      <point x="255" y="310"/>
      <point x="254" y="333"/>
      <point x="257" y="359" type="curve" smooth="yes"/>
      <point x="260" y="384"/>
      <point x="267" y="406"/>
      <point x="277" y="426" type="curve" smooth="yes"/>
      <point x="287" y="446"/>
      <point x="298" y="464"/>
      <point x="313" y="478" type="curve" smooth="yes"/>
      <point x="328" y="492"/>
      <point x="345" y="502"/>
      <point x="365" y="510" type="curve" smooth="yes"/>
      <point x="385" y="518"/>
      <point x="407" y="521"/>
      <point x="430" y="521" type="curve" smooth="yes"/>
      <point x="450" y="521"/>
      <point x="466" y="519"/>
      <point x="478" y="515" type="curve" smooth="yes"/>
      <point x="490" y="511"/>
      <point x="500" y="508"/>
      <point x="508" y="503" type="curve"/>
      <point x="516" y="499"/>
      <point x="521" y="494"/>
      <point x="526" y="490" type="curve" smooth="yes"/>
      <point x="531" y="486"/>
      <point x="535" y="485"/>
      <point x="540" y="485" type="curve" smooth="yes"/>
      <point x="544" y="485"/>
      <point x="548" y="486"/>
      <point x="551" y="488" type="curve" smooth="yes"/>
      <point x="554" y="490"/>
      <point x="556" y="492"/>
      <point x="558" y="494" type="curve"/>
      <point x="585" y="526" type="line"/>
      <point x="568" y="544"/>
      <point x="548" y="560"/>
      <point x="524" y="571" type="curve" smooth="yes"/>
      <point x="500" y="582"/>
      <point x="470" y="588"/>
      <point x="434" y="588" type="curve" smooth="yes"/>
      <point x="401" y="588"/>
      <point x="370" y="582"/>
      <point x="341" y="571" type="curve" smooth="yes"/>
      <point x="312" y="560"/>
      <point x="286" y="544"/>
      <point x="263" y="524" type="curve" smooth="yes"/>
      <point x="240" y="504"/>
      <point x="222" y="480"/>
      <point x="207" y="452" type="curve" smooth="yes"/>
      <point x="192" y="424"/>
      <point x="182" y="393"/>
      <point x="178" y="359" type="curve" smooth="yes"/>
      <point x="174" y="326"/>
      <point x="175" y="295"/>
      <point x="182" y="267" type="curve" smooth="yes"/>
      <point x="189" y="239"/>
      <point x="201" y="215"/>
      <point x="218" y="195" type="curve" smooth="yes"/>
      <point x="235" y="175"/>
      <point x="256" y="158"/>
      <point x="281" y="147" type="curve" smooth="yes"/>
      <point x="306" y="136"/>
      <point x="335" y="130"/>
      <point x="368" y="130" type="curve" smooth="yes"/>
      <point x="407" y="130"/>
      <point x="441" y="136"/>
      <point x="470" y="148" type="curve" smooth="yes"/>
      <point x="499" y="160"/>
      <point x="524" y="178"/>
      <point x="546" y="200" type="curve"/>
      <point x="520" y="232" type="line"/>
      <point x="518" y="234"/>
      <point x="516" y="235"/>
      <point x="515" y="236" type="curve" smooth="yes"/>
      <point x="514" y="237"/>
      <point x="512" y="238"/>
      <point x="508" y="238" type="curve" smooth="yes"/>
      <point x="506" y="238"/>
      <point x="504" y="237"/>
      <point x="502" y="236" type="curve" smooth="yes"/>
      <point x="500" y="235"/>
      <point x="498" y="234"/>
      <point x="495" y="232" type="curve"/>
    </contour>
    <contour>
      <point x="25" y="324"/>
      <point x="25" y="292"/>
      <point x="30" y="261" type="curve" smooth="yes"/>
      <point x="35" y="230"/>
      <point x="44" y="201"/>
      <point x="57" y="174" type="curve" smooth="yes"/>
      <point x="70" y="147"/>
      <point x="85" y="122"/>
      <point x="105" y="100" type="curve" smooth="yes"/>
      <point x="125" y="78"/>
      <point x="147" y="59"/>
      <point x="172" y="43" type="curve" smooth="yes"/>
      <point x="197" y="27"/>
      <point x="224" y="15"/>
      <point x="254" y="6" type="curve" smooth="yes"/>
      <point x="284" y="-3"/>
      <point x="316" y="-7"/>
      <point x="350" y="-7" type="curve" smooth="yes"/>
      <point x="384" y="-7"/>
      <point x="416" y="-3"/>
      <point x="448" y="6" type="curve" smooth="yes"/>
      <point x="480" y="15"/>
      <point x="511" y="27"/>
      <point x="540" y="43" type="curve" smooth="yes"/>
      <point x="569" y="59"/>
      <point x="596" y="78"/>
      <point x="621" y="100" type="curve" smooth="yes"/>
      <point x="646" y="122"/>
      <point x="669" y="147"/>
      <point x="688" y="174" type="curve" smooth="yes"/>
      <point x="707" y="201"/>
      <point x="723" y="230"/>
      <point x="735" y="261" type="curve" smooth="yes"/>
      <point x="747" y="292"/>
      <point x="756" y="325"/>
      <point x="760" y="358" type="curve" smooth="yes"/>
      <point x="764" y="392"/>
      <point x="764" y="424"/>
      <point x="759" y="455" type="curve" smooth="yes"/>
      <point x="754" y="486"/>
      <point x="745" y="516"/>
      <point x="733" y="543" type="curve" smooth="yes"/>
      <point x="721" y="570"/>
      <point x="705" y="595"/>
      <point x="685" y="617" type="curve" smooth="yes"/>
      <point x="665" y="639"/>
      <point x="643" y="658"/>
      <point x="618" y="674" type="curve" smooth="yes"/>
      <point x="593" y="690"/>
      <point x="565" y="702"/>
      <point x="535" y="711" type="curve" smooth="yes"/>
      <point x="505" y="720"/>
      <point x="473" y="724"/>
      <point x="439" y="724" type="curve" smooth="yes"/>
      <point x="405" y="724"/>
      <point x="373" y="720"/>
      <point x="341" y="711" type="curve" smooth="yes"/>
      <point x="309" y="702"/>
      <point x="278" y="690"/>
      <point x="249" y="674" type="curve" smooth="yes"/>
      <point x="220" y="658"/>
      <point x="193" y="639"/>
      <point x="168" y="617" type="curve" smooth="yes"/>
      <point x="143" y="595"/>
      <point x="121" y="570"/>
      <point x="102" y="543" type="curve" smooth="yes"/>
      <point x="83" y="516"/>
      <point x="66" y="486"/>
      <point x="54" y="455" type="curve" smooth="yes"/>
      <point x="42" y="424"/>
      <point x="33" y="392"/>
      <point x="29" y="358" type="curve" smooth="yes"/>
    </contour>
    <contour>
      <point x="84" y="403"/>
      <point x="98" y="445"/>
      <point x="119" y="484" type="curve" smooth="yes"/>
      <point x="140" y="523"/>
      <point x="167" y="557"/>
      <point x="199" y="586" type="curve" smooth="yes"/>
      <point x="231" y="615"/>
      <point x="267" y="638"/>
      <point x="307" y="655" type="curve" smooth="yes"/>
      <point x="347" y="672"/>
      <point x="390" y="680"/>
      <point x="434" y="680" type="curve" smooth="yes"/>
      <point x="463" y="680"/>
      <point x="491" y="677"/>
      <point x="517" y="669" type="curve" smooth="yes"/>
      <point x="543" y="661"/>
      <point x="567" y="651"/>
      <point x="589" y="637" type="curve" smooth="yes"/>
      <point x="611" y="623"/>
      <point x="630" y="606"/>
      <point x="647" y="586" type="curve" smooth="yes"/>
      <point x="664" y="566"/>
      <point x="677" y="545"/>
      <point x="688" y="521" type="curve" smooth="yes"/>
      <point x="699" y="497"/>
      <point x="706" y="472"/>
      <point x="710" y="444" type="curve" smooth="yes"/>
      <point x="714" y="416"/>
      <point x="715" y="388"/>
      <point x="711" y="358" type="curve" smooth="yes"/>
      <point x="706" y="313"/>
      <point x="692" y="272"/>
      <point x="671" y="233" type="curve" smooth="yes"/>
      <point x="650" y="194"/>
      <point x="623" y="160"/>
      <point x="591" y="131" type="curve" smooth="yes"/>
      <point x="559" y="102"/>
      <point x="523" y="80"/>
      <point x="482" y="63" type="curve" smooth="yes"/>
      <point x="441" y="46"/>
      <point x="399" y="38"/>
      <point x="355" y="38" type="curve" smooth="yes"/>
      <point x="326" y="38"/>
      <point x="298" y="41"/>
      <point x="272" y="49" type="curve" smooth="yes"/>
      <point x="246" y="57"/>
      <point x="222" y="67"/>
      <point x="200" y="81" type="curve" smooth="yes"/>
      <point x="178" y="95"/>
      <point x="160" y="112"/>
      <point x="143" y="131" type="curve" smooth="yes"/>
      <point x="126" y="150"/>
      <point x="113" y="172"/>
      <point x="102" y="196" type="curve" smooth="yes"/>
      <point x="91" y="220"/>
      <point x="84" y="245"/>
      <point x="80" y="272" type="curve" smooth="yes"/>
      <point x="76" y="299"/>
      <point x="75" y="328"/>
      <point x="79" y="358" type="curve" smooth="yes"/>
    </contour>
  </outline>
</glyph>
<glyph name="degree" format="1">
  <advance width="402"/>
  <unicode hex="00B0"/>
  <note>
    degree
  </note>
  <outline>
    <contour>
      <point x="44" y="542"/>
      <point x="46" y="522"/>
      <point x="52" y="502" type="curve" smooth="yes"/>
      <point x="58" y="482"/>
      <point x="67" y="465"/>
      <point x="80" y="451" type="curve" smooth="yes"/>
      <point x="93" y="437"/>
      <point x="108" y="424"/>
      <point x="127" y="416" type="curve" smooth="yes"/>
      <point x="146" y="408"/>
      <point x="167" y="404"/>
      <point x="190" y="404" type="curve" smooth="yes"/>
      <point x="213" y="404"/>
      <point x="235" y="408"/>
      <point x="256" y="416" type="curve" smooth="yes"/>
      <point x="277" y="424"/>
      <point x="296" y="437"/>
      <point x="312" y="451" type="curve" smooth="yes"/>
      <point x="328" y="465"/>
      <point x="342" y="482"/>
      <point x="353" y="502" type="curve" smooth="yes"/>
      <point x="364" y="522"/>
      <point x="370" y="542"/>
      <point x="373" y="564" type="curve" smooth="yes"/>
      <point x="376" y="586"/>
      <point x="374" y="607"/>
      <point x="368" y="627" type="curve" smooth="yes"/>
      <point x="362" y="647"/>
      <point x="353" y="664"/>
      <point x="340" y="678" type="curve" smooth="yes"/>
      <point x="327" y="692"/>
      <point x="311" y="704"/>
      <point x="292" y="712" type="curve" smooth="yes"/>
      <point x="273" y="720"/>
      <point x="253" y="725"/>
      <point x="230" y="725" type="curve" smooth="yes"/>
      <point x="207" y="725"/>
      <point x="185" y="720"/>
      <point x="164" y="712" type="curve" smooth="yes"/>
      <point x="143" y="704"/>
      <point x="124" y="692"/>
      <point x="108" y="678" type="curve" smooth="yes"/>
      <point x="92" y="664"/>
      <point x="78" y="647"/>
      <point x="67" y="627" type="curve" smooth="yes"/>
      <point x="56" y="607"/>
      <point x="50" y="586"/>
      <point x="47" y="564" type="curve" smooth="yes"/>
    </contour>
    <contour>
      <point x="112" y="577"/>
      <point x="116" y="591"/>
      <point x="123" y="603" type="curve" smooth="yes"/>
      <point x="130" y="615"/>
      <point x="138" y="626"/>
      <point x="148" y="635" type="curve" smooth="yes"/>
      <point x="158" y="644"/>
      <point x="169" y="652"/>
      <point x="182" y="657" type="curve" smooth="yes"/>
      <point x="195" y="662"/>
      <point x="208" y="664"/>
      <point x="222" y="664" type="curve" smooth="yes"/>
      <point x="236" y="664"/>
      <point x="249" y="662"/>
      <point x="260" y="657" type="curve" smooth="yes"/>
      <point x="271" y="652"/>
      <point x="281" y="644"/>
      <point x="289" y="635" type="curve" smooth="yes"/>
      <point x="297" y="626"/>
      <point x="303" y="615"/>
      <point x="306" y="603" type="curve" smooth="yes"/>
      <point x="309" y="591"/>
      <point x="311" y="577"/>
      <point x="309" y="563" type="curve" smooth="yes"/>
      <point x="307" y="549"/>
      <point x="302" y="536"/>
      <point x="296" y="524" type="curve" smooth="yes"/>
      <point x="290" y="512"/>
      <point x="281" y="501"/>
      <point x="271" y="492" type="curve" smooth="yes"/>
      <point x="261" y="483"/>
      <point x="250" y="476"/>
      <point x="237" y="471" type="curve" smooth="yes"/>
      <point x="224" y="466"/>
      <point x="211" y="463"/>
      <point x="197" y="463" type="curve" smooth="yes"/>
      <point x="183" y="463"/>
      <point x="171" y="466"/>
      <point x="159" y="471" type="curve" smooth="yes"/>
      <point x="147" y="476"/>
      <point x="138" y="483"/>
      <point x="130" y="492" type="curve" smooth="yes"/>
      <point x="122" y="501"/>
      <point x="117" y="512"/>
      <point x="113" y="524" type="curve" smooth="yes"/>
      <point x="109" y="536"/>
      <point x="108" y="549"/>
      <point x="110" y="563" type="curve" smooth="yes"/>
    </contour>
  </outline>
</glyph>
<glyph name="twosuperior" format="1">
  <advance width="332"/>
  <unicode hex="00B2"/>
  <note>
    twosuperior
  </note>
  <outline>
    <contour>
      <point x="216" y="585" type="line" smooth="yes"/>
      <point x="227" y="595"/>
      <point x="238" y="604"/>
      <point x="248" y="614" type="curve" smooth="yes"/>
      <point x="283" y="648"/>
      <point x="303" y="681"/>
      <point x="307" y="714" type="curve" smooth="yes"/>
      <point x="311" y="745"/>
      <point x="304" y="771"/>
      <point x="285" y="790" type="curve" smooth="yes"/>
      <point x="266" y="809"/>
      <point x="240" y="818"/>
      <point x="205" y="818" type="curve" smooth="yes"/>
      <point x="171" y="818"/>
      <point x="141" y="810"/>
      <point x="116" y="792" type="curve" smooth="yes"/>
      <point x="91" y="774"/>
      <point x="73" y="747"/>
      <point x="64" y="712" type="curve"/>
      <point x="99" y="706" type="line"/>
      <point x="102" y="705"/>
      <point x="105" y="706"/>
      <point x="108" y="706" type="curve" smooth="yes"/>
      <point x="117" y="706"/>
      <point x="125" y="710"/>
      <point x="132" y="720" type="curve"/>
      <point x="146" y="750"/>
      <point x="167" y="766"/>
      <point x="196" y="766" type="curve" smooth="yes"/>
      <point x="211" y="766"/>
      <point x="223" y="761"/>
      <point x="232" y="752" type="curve" smooth="yes"/>
      <point x="241" y="743"/>
      <point x="244" y="729"/>
      <point x="242" y="712" type="curve" smooth="yes"/>
      <point x="238" y="682"/>
      <point x="214" y="648"/>
      <point x="169" y="608" type="curve" smooth="yes"/>
      <point x="45" y="498" type="line" smooth="yes"/>
      <point x="37" y="491"/>
      <point x="32" y="482"/>
      <point x="31" y="472" type="curve"/>
      <point x="28" y="450" type="line"/>
      <point x="284" y="450" type="line"/>
      <point x="295" y="547" type="line"/>
      <point x="268" y="547" type="line" smooth="yes"/>
      <point x="261" y="547"/>
      <point x="257" y="544"/>
      <point x="255" y="537" type="curve"/>
      <point x="254" y="535"/>
      <point x="252" y="527"/>
      <point x="249" y="510" type="curve"/>
      <point x="171" y="510" type="line" smooth="yes"/>
      <point x="159" y="510"/>
      <point x="144" y="507"/>
      <point x="125" y="502" type="curve"/>
    </contour>
  </outline>
</glyph>
<glyph name="mu" format="1">
  <advance width="562"/>
  <unicode hex="00B5"/>
  <note>
    mu
  </note>
  <outline>
    <contour>
      <point x="190" y="506" type="line"/>
      <point x="101" y="506" type="line"/>
      <point x="22" y="-134" type="line"/>
      <point x="21" y="-146"/>
      <point x="23" y="-155"/>
      <point x="29" y="-162" type="curve" smooth="yes"/>
      <point x="35" y="-169"/>
      <point x="44" y="-172"/>
      <point x="57" y="-172" type="curve" smooth="yes"/>
      <point x="101" y="-172" type="line"/>
      <point x="118" y="-32" type="line" smooth="yes"/>
      <point x="120" y="-19"/>
      <point x="121" y="-5"/>
      <point x="122" y="9" type="curve" smooth="yes"/>
      <point x="123" y="23"/>
      <point x="123" y="38"/>
      <point x="122" y="52" type="curve"/>
      <point x="133" y="37"/>
      <point x="147" y="24"/>
      <point x="165" y="16" type="curve" smooth="yes"/>
      <point x="183" y="8"/>
      <point x="204" y="3"/>
      <point x="229" y="3" type="curve" smooth="yes"/>
      <point x="258" y="3"/>
      <point x="285" y="9"/>
      <point x="310" y="20" type="curve" smooth="yes"/>
      <point x="335" y="31"/>
      <point x="360" y="49"/>
      <point x="385" y="73" type="curve"/>
      <point x="385" y="18" type="line"/>
      <point x="387" y="6"/>
      <point x="394" y="0"/>
      <point x="407" y="0" type="curve" smooth="yes"/>
      <point x="460" y="0" type="line"/>
      <point x="522" y="506" type="line"/>
      <point x="433" y="506" type="line"/>
      <point x="387" y="133" type="line"/>
      <point x="365" y="111"/>
      <point x="342" y="94"/>
      <point x="317" y="82" type="curve" smooth="yes"/>
      <point x="292" y="70"/>
      <point x="268" y="63"/>
      <point x="242" y="63" type="curve" smooth="yes"/>
      <point x="207" y="63"/>
      <point x="182" y="73"/>
      <point x="166" y="93" type="curve" smooth="yes"/>
      <point x="150" y="113"/>
      <point x="145" y="142"/>
      <point x="149" y="178" type="curve" smooth="yes"/>
    </contour>
  </outline>
</glyph>
<glyph name="paragraph" format="1">
  <advance width="676"/>
  <unicode hex="00B6"/>
  <note>
    paragraph
  </note>
  <outline>
    <contour>
      <point x="680" y="716" type="line"/>
      <point x="275" y="716" type="line" smooth="yes"/>
      <point x="240" y="716"/>
      <point x="208" y="711"/>
      <point x="179" y="702" type="curve" smooth="yes"/>
      <point x="150" y="693"/>
      <point x="126" y="680"/>
      <point x="104" y="663" type="curve" smooth="yes"/>
      <point x="82" y="646"/>
      <point x="64" y="627"/>
      <point x="51" y="603" type="curve" smooth="yes"/>
      <point x="38" y="579"/>
      <point x="30" y="553"/>
      <point x="26" y="524" type="curve" smooth="yes"/>
      <point x="23" y="497"/>
      <point x="24" y="472"/>
      <point x="32" y="448" type="curve" smooth="yes"/>
      <point x="40" y="424"/>
      <point x="53" y="405"/>
      <point x="70" y="387" type="curve" smooth="yes"/>
      <point x="87" y="369"/>
      <point x="110" y="355"/>
      <point x="136" y="345" type="curve" smooth="yes"/>
      <point x="162" y="335"/>
      <point x="192" y="330"/>
      <point x="227" y="330" type="curve"/>
      <point x="174" y="-101" type="line"/>
      <point x="253" y="-101" type="line"/>
      <point x="344" y="640" type="line"/>
      <point x="482" y="640" type="line"/>
      <point x="391" y="-101" type="line"/>
      <point x="470" y="-101" type="line"/>
      <point x="561" y="640" type="line"/>
      <point x="670" y="640" type="line"/>
    </contour>
  </outline>
</glyph>
<glyph name="cedilla" format="1">
  <advance width="276"/>
  <unicode hex="00B8"/>
  <note>
    cedilla
  </note>
  <outline>
    <contour>
      <point x="25" y="-124"/>
      <point x="21" y="-126"/>
      <point x="18" y="-132" type="curve"/>
      <point x="7" y="-160" type="line"/>
      <point x="17" y="-165"/>
      <point x="27" y="-168"/>
      <point x="39" y="-171" type="curve" smooth="yes"/>
      <point x="51" y="-174"/>
      <point x="64" y="-176"/>
      <point x="78" y="-176" type="curve" smooth="yes"/>
      <point x="94" y="-176"/>
      <point x="108" y="-174"/>
      <point x="122" y="-171" type="curve" smooth="yes"/>
      <point x="136" y="-168"/>
      <point x="148" y="-163"/>
      <point x="158" y="-157" type="curve" smooth="yes"/>
      <point x="168" y="-151"/>
      <point x="177" y="-143"/>
      <point x="183" y="-135" type="curve" smooth="yes"/>
      <point x="189" y="-127"/>
      <point x="194" y="-117"/>
      <point x="195" y="-106" type="curve" smooth="yes"/>
      <point x="197" y="-88"/>
      <point x="192" y="-74"/>
      <point x="180" y="-62" type="curve" smooth="yes"/>
      <point x="168" y="-50"/>
      <point x="147" y="-42"/>
      <point x="118" y="-35" type="curve"/>
      <point x="135" y="5" type="line"/>
      <point x="79" y="5" type="line"/>
      <point x="49" y="-66" type="line"/>
      <point x="61" y="-68"/>
      <point x="72" y="-69"/>
      <point x="82" y="-71" type="curve" smooth="yes"/>
      <point x="92" y="-73"/>
      <point x="100" y="-75"/>
      <point x="106" y="-78" type="curve" smooth="yes"/>
      <point x="112" y="-81"/>
      <point x="118" y="-86"/>
      <point x="121" y="-90" type="curve" smooth="yes"/>
      <point x="124" y="-94"/>
      <point x="125" y="-100"/>
      <point x="124" y="-106" type="curve"/>
      <point x="123" y="-115"/>
      <point x="119" y="-121"/>
      <point x="111" y="-127" type="curve" smooth="yes"/>
      <point x="103" y="-133"/>
      <point x="92" y="-135"/>
      <point x="78" y="-135" type="curve" smooth="yes"/>
      <point x="71" y="-135"/>
      <point x="65" y="-134"/>
      <point x="60" y="-133" type="curve" smooth="yes"/>
      <point x="55" y="-132"/>
      <point x="50" y="-131"/>
      <point x="47" y="-129" type="curve" smooth="yes"/>
      <point x="44" y="-127"/>
      <point x="41" y="-126"/>
      <point x="38" y="-125" type="curve" smooth="yes"/>
      <point x="35" y="-124"/>
      <point x="33" y="-124"/>
      <point x="31" y="-124" type="curve" smooth="yes"/>
    </contour>
  </outline>
</glyph>
<glyph name="ordmasculine" format="1">
  <advance width="388"/>
  <unicode hex="00BA"/>
  <note>
    ordmasculine
  </note>
  <outline>
    <contour>
      <point x="199" y="724"/>
      <point x="178" y="721"/>
      <point x="158" y="714" type="curve" smooth="yes"/>
      <point x="138" y="707"/>
      <point x="120" y="696"/>
      <point x="105" y="683" type="curve" smooth="yes"/>
      <point x="90" y="670"/>
      <point x="78" y="653"/>
      <point x="68" y="634" type="curve" smooth="yes"/>
      <point x="58" y="615"/>
      <point x="52" y="594"/>
      <point x="49" y="570" type="curve" smooth="yes"/>
      <point x="46" y="546"/>
      <point x="47" y="524"/>
      <point x="52" y="505" type="curve" smooth="yes"/>
      <point x="57" y="486"/>
      <point x="65" y="470"/>
      <point x="77" y="456" type="curve" smooth="yes"/>
      <point x="89" y="442"/>
      <point x="104" y="432"/>
      <point x="122" y="425" type="curve" smooth="yes"/>
      <point x="140" y="418"/>
      <point x="161" y="414"/>
      <point x="185" y="414" type="curve" smooth="yes"/>
      <point x="208" y="414"/>
      <point x="230" y="418"/>
      <point x="250" y="425" type="curve" smooth="yes"/>
      <point x="270" y="432"/>
      <point x="287" y="442"/>
      <point x="302" y="456" type="curve" smooth="yes"/>
      <point x="317" y="470"/>
      <point x="329" y="486"/>
      <point x="339" y="505" type="curve" smooth="yes"/>
      <point x="349" y="524"/>
      <point x="355" y="546"/>
      <point x="358" y="570" type="curve" smooth="yes"/>
      <point x="361" y="594"/>
      <point x="360" y="615"/>
      <point x="355" y="634" type="curve" smooth="yes"/>
      <point x="350" y="653"/>
      <point x="342" y="670"/>
      <point x="330" y="683" type="curve" smooth="yes"/>
      <point x="318" y="696"/>
      <point x="303" y="707"/>
      <point x="285" y="714" type="curve" smooth="yes"/>
      <point x="267" y="721"/>
      <point x="246" y="724"/>
      <point x="223" y="724" type="curve" smooth="yes"/>
    </contour>
    <contour>
      <point x="163" y="467"/>
      <point x="142" y="475"/>
      <point x="130" y="493" type="curve" smooth="yes"/>
      <point x="118" y="511"/>
      <point x="115" y="537"/>
      <point x="119" y="570" type="curve" smooth="yes"/>
      <point x="123" y="603"/>
      <point x="133" y="629"/>
      <point x="149" y="646" type="curve" smooth="yes"/>
      <point x="165" y="663"/>
      <point x="188" y="672"/>
      <point x="217" y="672" type="curve" smooth="yes"/>
      <point x="245" y="672"/>
      <point x="264" y="663"/>
      <point x="276" y="646" type="curve" smooth="yes"/>
      <point x="288" y="629"/>
      <point x="292" y="603"/>
      <point x="288" y="570" type="curve" smooth="yes"/>
      <point x="284" y="537"/>
      <point x="273" y="511"/>
      <point x="257" y="493" type="curve" smooth="yes"/>
      <point x="241" y="475"/>
      <point x="220" y="467"/>
      <point x="192" y="467" type="curve" smooth="yes"/>
    </contour>
  </outline>
</glyph>
<glyph name="Eacute" format="1">
  <advance width="572"/>
  <unicode hex="00C9"/>
  <note>
    Eacute
  </note>
  <outline>
    <contour>
      <point x="78" y="716" type="line"/>
      <point x="73" y="674" type="line" smooth="yes"/>
      <point x="72" y="664"/>
      <point x="76" y="657"/>
      <point x="86" y="655" type="curve" smooth="yes"/>
      <point x="92" y="654"/>
      <point x="111" y="650"/>
      <point x="142" y="644" type="curve"/>
      <point x="71" y="73" type="line"/>
      <point x="13" y="62" type="line" smooth="yes"/>
      <point x="3" y="60"/>
      <point x="-3" y="53"/>
      <point x="-4" y="43" type="curve"/>
      <point x="-10" y="0" type="line"/>
      <point x="504" y="0" type="line"/>
      <point x="525" y="167" type="line"/>
      <point x="477" y="167" type="line" smooth="yes"/>
      <point x="465" y="167"/>
      <point x="457" y="161"/>
      <point x="453" y="150" type="curve" smooth="yes"/>
      <point x="452" y="147"/>
      <point x="447" y="123"/>
      <point x="438" y="79" type="curve"/>
      <point x="170" y="79" type="line"/>
      <point x="200" y="324" type="line"/>
      <point x="464" y="324" type="line"/>
      <point x="473" y="400" type="line"/>
      <point x="209" y="400" type="line"/>
      <point x="238" y="638" type="line"/>
      <point x="506" y="638" type="line"/>
      <point x="504" y="590"/>
      <point x="504" y="564"/>
      <point x="504" y="561" type="curve"/>
      <point x="505" y="549"/>
      <point x="511" y="544"/>
      <point x="523" y="544" type="curve" smooth="yes"/>
      <point x="571" y="544" type="line"/>
      <point x="592" y="716" type="line"/>
    </contour>
    <contour>
      <point x="569" y="891" type="line"/>
      <point x="469" y="891" type="line" smooth="yes"/>
      <point x="463" y="891"/>
      <point x="459" y="890"/>
      <point x="455" y="890" type="curve" smooth="yes"/>
      <point x="451" y="890"/>
      <point x="447" y="889"/>
      <point x="444" y="888" type="curve" smooth="yes"/>
      <point x="441" y="887"/>
      <point x="438" y="884"/>
      <point x="435" y="882" type="curve" smooth="yes"/>
      <point x="432" y="880"/>
      <point x="429" y="877"/>
      <point x="425" y="874" type="curve"/>
      <point x="307" y="773" type="line"/>
      <point x="376" y="773" type="line" smooth="yes"/>
      <point x="383" y="773"/>
      <point x="389" y="774"/>
      <point x="393" y="775" type="curve" smooth="yes"/>
      <point x="397" y="776"/>
      <point x="403" y="779"/>
      <point x="409" y="783" type="curve" smooth="yes"/>
    </contour>
  </outline>
</glyph>
<glyph name="Icircumflex" format="1">
  <advance width="331"/>
  <unicode hex="00CE"/>
  <note>
    Icircumflex
  </note>
  <outline>
    <contour>
      <point x="297" y="655" type="line" smooth="yes"/>
      <point x="308" y="657"/>
      <point x="314" y="664"/>
      <point x="315" y="674" type="curve" smooth="yes"/>
      <point x="320" y="716" type="line"/>
      <point x="78" y="716" type="line"/>
      <point x="73" y="674" type="line" smooth="yes"/>
      <point x="72" y="664"/>
      <point x="75" y="658"/>
      <point x="83" y="656" type="curve" smooth="yes"/>
      <point x="91" y="654"/>
      <point x="111" y="650"/>
      <point x="142" y="644" type="curve"/>
      <point x="71" y="73" type="line"/>
      <point x="13" y="62" type="line" smooth="yes"/>
      <point x="3" y="60"/>
      <point x="-3" y="53"/>
      <point x="-4" y="43" type="curve"/>
      <point x="-10" y="0" type="line"/>
      <point x="232" y="0" type="line"/>
      <point x="237" y="43" type="line" smooth="yes"/>
      <point x="238" y="53"/>
      <point x="235" y="59"/>
      <point x="227" y="61" type="curve" smooth="yes"/>
      <point x="219" y="63"/>
      <point x="200" y="67"/>
      <point x="168" y="73" type="curve"/>
      <point x="239" y="644" type="line"/>
    </contour>
    <contour>
      <point x="370" y="773" type="line"/>
      <point x="264" y="878" type="line"/>
      <point x="176" y="878" type="line"/>
      <point x="44" y="773" type="line"/>
      <point x="111" y="773" type="line" smooth="yes"/>
      <point x="115" y="773"/>
      <point x="120" y="774"/>
      <point x="125" y="775" type="curve" smooth="yes"/>
      <point x="130" y="776"/>
      <point x="134" y="778"/>
      <point x="137" y="780" type="curve" smooth="yes"/>
      <point x="208" y="827" type="line"/>
      <point x="209" y="828"/>
      <point x="211" y="829"/>
      <point x="214" y="831" type="curve"/>
      <point x="215" y="830"/>
      <point x="217" y="828"/>
      <point x="220" y="827" type="curve"/>
      <point x="279" y="780" type="line"/>
      <point x="282" y="778"/>
      <point x="285" y="776"/>
      <point x="290" y="775" type="curve" smooth="yes"/>
      <point x="295" y="774"/>
      <point x="298" y="773"/>
      <point x="302" y="773" type="curve" smooth="yes"/>
    </contour>
  </outline>
</glyph>
<glyph name="Otilde" format="1">
  <advance width="742"/>
  <unicode hex="00D5"/>
  <note>
    Otilde
  </note>
  <outline>
    <contour>
      <point x="731" y="412"/>
      <point x="727" y="461"/>
      <point x="716" y="506" type="curve" smooth="yes"/>
      <point x="705" y="551"/>
      <point x="685" y="589"/>
      <point x="658" y="622" type="curve" smooth="yes"/>
      <point x="631" y="654"/>
      <point x="597" y="680"/>
      <point x="556" y="698" type="curve" smooth="yes"/>
      <point x="515" y="716"/>
      <point x="468" y="724"/>
      <point x="415" y="724" type="curve" smooth="yes"/>
      <point x="362" y="724"/>
      <point x="314" y="716"/>
      <point x="268" y="698" type="curve" smooth="yes"/>
      <point x="222" y="680"/>
      <point x="182" y="654"/>
      <point x="147" y="622" type="curve" smooth="yes"/>
      <point x="112" y="590"/>
      <point x="84" y="551"/>
      <point x="61" y="506" type="curve" smooth="yes"/>
      <point x="38" y="461"/>
      <point x="24" y="412"/>
      <point x="17" y="358" type="curve" smooth="yes"/>
      <point x="10" y="304"/>
      <point x="13" y="255"/>
      <point x="24" y="210" type="curve" smooth="yes"/>
      <point x="35" y="165"/>
      <point x="55" y="126"/>
      <point x="82" y="94" type="curve" smooth="yes"/>
      <point x="109" y="62"/>
      <point x="144" y="37"/>
      <point x="185" y="19" type="curve" smooth="yes"/>
      <point x="226" y="1"/>
      <point x="272" y="-8"/>
      <point x="325" y="-8" type="curve" smooth="yes"/>
      <point x="378" y="-8"/>
      <point x="427" y="1"/>
      <point x="473" y="19" type="curve" smooth="yes"/>
      <point x="519" y="37"/>
      <point x="559" y="62"/>
      <point x="594" y="94" type="curve" smooth="yes"/>
      <point x="629" y="126"/>
      <point x="657" y="165"/>
      <point x="680" y="210" type="curve" smooth="yes"/>
      <point x="703" y="255"/>
      <point x="717" y="304"/>
      <point x="724" y="358" type="curve" smooth="yes"/>
    </contour>
    <contour>
      <point x="619" y="314"/>
      <point x="608" y="275"/>
      <point x="592" y="240" type="curve" smooth="yes"/>
      <point x="576" y="205"/>
      <point x="555" y="175"/>
      <point x="530" y="151" type="curve" smooth="yes"/>
      <point x="505" y="127"/>
      <point x="476" y="109"/>
      <point x="443" y="96" type="curve" smooth="yes"/>
      <point x="410" y="83"/>
      <point x="375" y="76"/>
      <point x="336" y="76" type="curve" smooth="yes"/>
      <point x="298" y="76"/>
      <point x="263" y="83"/>
      <point x="233" y="96" type="curve" smooth="yes"/>
      <point x="203" y="109"/>
      <point x="179" y="127"/>
      <point x="160" y="151" type="curve" smooth="yes"/>
      <point x="141" y="175"/>
      <point x="128" y="205"/>
      <point x="120" y="240" type="curve" smooth="yes"/>
      <point x="112" y="275"/>
      <point x="111" y="314"/>
      <point x="116" y="358" type="curve" smooth="yes"/>
      <point x="121" y="402"/>
      <point x="133" y="441"/>
      <point x="149" y="476" type="curve" smooth="yes"/>
      <point x="165" y="511"/>
      <point x="186" y="541"/>
      <point x="211" y="565" type="curve" smooth="yes"/>
      <point x="236" y="589"/>
      <point x="265" y="608"/>
      <point x="298" y="621" type="curve" smooth="yes"/>
      <point x="331" y="634"/>
      <point x="367" y="640"/>
      <point x="405" y="640" type="curve" smooth="yes"/>
      <point x="444" y="640"/>
      <point x="477" y="634"/>
      <point x="507" y="621" type="curve" smooth="yes"/>
      <point x="537" y="608"/>
      <point x="562" y="589"/>
      <point x="581" y="565" type="curve" smooth="yes"/>
      <point x="600" y="541"/>
      <point x="613" y="511"/>
      <point x="621" y="476" type="curve" smooth="yes"/>
      <point x="629" y="441"/>
      <point x="629" y="402"/>
      <point x="624" y="358" type="curve" smooth="yes"/>
    </contour>
    <contour>
      <point x="482" y="831"/>
      <point x="474" y="834"/>
      <point x="466" y="838" type="curve" smooth="yes"/>
      <point x="458" y="842"/>
      <point x="449" y="847"/>
      <point x="440" y="852" type="curve" smooth="yes"/>
      <point x="431" y="857"/>
      <point x="421" y="862"/>
      <point x="411" y="866" type="curve" smooth="yes"/>
      <point x="401" y="870"/>
      <point x="390" y="873"/>
      <point x="378" y="873" type="curve" smooth="yes"/>
      <point x="365" y="873"/>
      <point x="353" y="870"/>
      <point x="342" y="865" type="curve" smooth="yes"/>
      <point x="331" y="860"/>
      <point x="321" y="854"/>
      <point x="313" y="845" type="curve" smooth="yes"/>
      <point x="305" y="836"/>
      <point x="298" y="826"/>
      <point x="293" y="814" type="curve" smooth="yes"/>
      <point x="288" y="802"/>
      <point x="284" y="788"/>
      <point x="282" y="774" type="curve"/>
      <point x="332" y="774" type="line"/>
      <point x="334" y="786"/>
      <point x="338" y="796"/>
      <point x="345" y="803" type="curve" smooth="yes"/>
      <point x="352" y="810"/>
      <point x="362" y="814"/>
      <point x="373" y="814" type="curve" smooth="yes"/>
      <point x="381" y="814"/>
      <point x="389" y="811"/>
      <point x="397" y="807" type="curve" smooth="yes"/>
      <point x="405" y="803"/>
      <point x="414" y="798"/>
      <point x="423" y="793" type="curve" smooth="yes"/>
      <point x="432" y="788"/>
      <point x="442" y="782"/>
      <point x="452" y="778" type="curve" smooth="yes"/>
      <point x="462" y="774"/>
      <point x="473" y="772"/>
      <point x="485" y="772" type="curve" smooth="yes"/>
      <point x="498" y="772"/>
      <point x="510" y="774"/>
      <point x="521" y="779" type="curve" smooth="yes"/>
      <point x="532" y="784"/>
      <point x="542" y="791"/>
      <point x="550" y="800" type="curve" smooth="yes"/>
      <point x="558" y="809"/>
      <point x="565" y="819"/>
      <point x="570" y="831" type="curve" smooth="yes"/>
      <point x="575" y="843"/>
      <point x="578" y="856"/>
      <point x="580" y="870" type="curve"/>
      <point x="531" y="870" type="line"/>
      <point x="529" y="858"/>
      <point x="525" y="849"/>
      <point x="518" y="842" type="curve" smooth="yes"/>
      <point x="511" y="835"/>
      <point x="502" y="831"/>
      <point x="490" y="831" type="curve" smooth="yes"/>
    </contour>
  </outline>
</glyph>
<glyph name="Oslash" format="1">
  <advance width="752"/>
  <unicode hex="00D8"/>
  <note>
    Oslash
  </note>
  <outline>
    <contour>
      <point x="737" y="415"/>
      <point x="734" y="467"/>
      <point x="721" y="513" type="curve" smooth="yes"/>
      <point x="708" y="559"/>
      <point x="686" y="599"/>
      <point x="656" y="632" type="curve"/>
      <point x="756" y="749" type="line"/>
      <point x="706" y="749" type="line" smooth="yes"/>
      <point x="695" y="749"/>
      <point x="687" y="747"/>
      <point x="681" y="743" type="curve" smooth="yes"/>
      <point x="675" y="739"/>
      <point x="669" y="733"/>
      <point x="661" y="724" type="curve" smooth="yes"/>
      <point x="613" y="668" type="line"/>
      <point x="588" y="686"/>
      <point x="559" y="700"/>
      <point x="527" y="710" type="curve" smooth="yes"/>
      <point x="495" y="720"/>
      <point x="459" y="724"/>
      <point x="421" y="724" type="curve" smooth="yes"/>
      <point x="368" y="724"/>
      <point x="320" y="716"/>
      <point x="274" y="698" type="curve" smooth="yes"/>
      <point x="228" y="680"/>
      <point x="188" y="654"/>
      <point x="153" y="622" type="curve" smooth="yes"/>
      <point x="118" y="590"/>
      <point x="90" y="551"/>
      <point x="67" y="506" type="curve" smooth="yes"/>
      <point x="44" y="461"/>
      <point x="30" y="412"/>
      <point x="23" y="358" type="curve" smooth="yes"/>
      <point x="16" y="298"/>
      <point x="19" y="244"/>
      <point x="34" y="196" type="curve" smooth="yes"/>
      <point x="49" y="148"/>
      <point x="73" y="109"/>
      <point x="106" y="76" type="curve"/>
      <point x="-6" y="-54" type="line"/>
      <point x="34" y="-54" type="line" smooth="yes"/>
      <point x="44" y="-54"/>
      <point x="53" y="-52"/>
      <point x="63" y="-48" type="curve" smooth="yes"/>
      <point x="73" y="-44"/>
      <point x="82" y="-37"/>
      <point x="91" y="-27" type="curve" smooth="yes"/>
      <point x="150" y="41" type="line"/>
      <point x="174" y="25"/>
      <point x="202" y="13"/>
      <point x="232" y="5" type="curve" smooth="yes"/>
      <point x="262" y="-3"/>
      <point x="295" y="-8"/>
      <point x="331" y="-8" type="curve" smooth="yes"/>
      <point x="384" y="-8"/>
      <point x="433" y="1"/>
      <point x="479" y="19" type="curve" smooth="yes"/>
      <point x="525" y="37"/>
      <point x="565" y="62"/>
      <point x="600" y="94" type="curve" smooth="yes"/>
      <point x="635" y="126"/>
      <point x="663" y="165"/>
      <point x="686" y="210" type="curve" smooth="yes"/>
      <point x="709" y="255"/>
      <point x="723" y="304"/>
      <point x="730" y="358" type="curve" smooth="yes"/>
    </contour>
    <contour>
      <point x="127" y="402"/>
      <point x="139" y="442"/>
      <point x="155" y="477" type="curve" smooth="yes"/>
      <point x="171" y="512"/>
      <point x="192" y="541"/>
      <point x="217" y="565" type="curve" smooth="yes"/>
      <point x="242" y="589"/>
      <point x="271" y="608"/>
      <point x="304" y="621" type="curve" smooth="yes"/>
      <point x="337" y="634"/>
      <point x="373" y="641"/>
      <point x="411" y="641" type="curve" smooth="yes"/>
      <point x="440" y="641"/>
      <point x="466" y="637"/>
      <point x="490" y="630" type="curve" smooth="yes"/>
      <point x="514" y="623"/>
      <point x="535" y="612"/>
      <point x="553" y="598" type="curve"/>
      <point x="168" y="148" type="line"/>
      <point x="148" y="172"/>
      <point x="134" y="203"/>
      <point x="126" y="238" type="curve" smooth="yes"/>
      <point x="118" y="273"/>
      <point x="116" y="313"/>
      <point x="122" y="358" type="curve" smooth="yes"/>
    </contour>
    <contour>
      <point x="625" y="314"/>
      <point x="614" y="275"/>
      <point x="598" y="240" type="curve" smooth="yes"/>
      <point x="582" y="205"/>
      <point x="561" y="175"/>
      <point x="536" y="151" type="curve" smooth="yes"/>
      <point x="511" y="127"/>
      <point x="482" y="109"/>
      <point x="449" y="96" type="curve" smooth="yes"/>
      <point x="416" y="83"/>
      <point x="381" y="76"/>
      <point x="342" y="76" type="curve" smooth="yes"/>
      <point x="290" y="76"/>
      <point x="246" y="89"/>
      <point x="210" y="112" type="curve"/>
      <point x="592" y="558" type="line"/>
      <point x="609" y="534"/>
      <point x="621" y="505"/>
      <point x="628" y="471" type="curve" smooth="yes"/>
      <point x="635" y="437"/>
      <point x="635" y="400"/>
      <point x="630" y="358" type="curve" smooth="yes"/>
    </contour>
  </outline>
</glyph>
<glyph name="Thorn" format="1">
  <advance width="552"/>
  <unicode hex="00DE"/>
  <note>
    Thorn
  </note>
  <outline>
    <contour>
      <point x="130" y="136" type="line"/>
      <point x="245" y="136" type="line" smooth="yes"/>
      <point x="288" y="136"/>
      <point x="327" y="142"/>
      <point x="362" y="153" type="curve" smooth="yes"/>
      <point x="397" y="164"/>
      <point x="426" y="180"/>
      <point x="451" y="200" type="curve" smooth="yes"/>
      <point x="476" y="220"/>
      <point x="496" y="243"/>
      <point x="511" y="271" type="curve" smooth="yes"/>
      <point x="526" y="299"/>
      <point x="536" y="329"/>
      <point x="540" y="362" type="curve" smooth="yes"/>
      <point x="544" y="396"/>
      <point x="542" y="427"/>
      <point x="535" y="454" type="curve" smooth="yes"/>
      <point x="528" y="481"/>
      <point x="514" y="505"/>
      <point x="494" y="524" type="curve" smooth="yes"/>
      <point x="474" y="543"/>
      <point x="449" y="558"/>
      <point x="417" y="569" type="curve" smooth="yes"/>
      <point x="385" y="579"/>
      <point x="345" y="584"/>
      <point x="300" y="584" type="curve" smooth="yes"/>
      <point x="185" y="584" type="line"/>
      <point x="201" y="716" type="line"/>
      <point x="105" y="716" type="line"/>
      <point x="17" y="0" type="line"/>
      <point x="114" y="0" type="line"/>
    </contour>
    <contour>
      <point x="140" y="213" type="line"/>
      <point x="176" y="508" type="line"/>
      <point x="291" y="508" type="line" smooth="yes"/>
      <point x="348" y="508"/>
      <point x="389" y="496"/>
      <point x="414" y="470" type="curve" smooth="yes"/>
      <point x="439" y="444"/>
      <point x="449" y="408"/>
      <point x="443" y="362" type="curve" smooth="yes"/>
      <point x="440" y="340"/>
      <point x="435" y="320"/>
      <point x="425" y="302" type="curve" smooth="yes"/>
      <point x="415" y="284"/>
      <point x="402" y="268"/>
      <point x="386" y="255" type="curve" smooth="yes"/>
      <point x="370" y="242"/>
      <point x="351" y="231"/>
      <point x="329" y="224" type="curve" smooth="yes"/>
      <point x="307" y="217"/>
      <point x="283" y="213"/>
      <point x="255" y="213" type="curve" smooth="yes"/>
    </contour>
  </outline>
</glyph>
<glyph name="germandbls" format="1">
  <advance width="541"/>
  <unicode hex="00DF"/>
  <note>
    germandbls
  </note>
  <outline>
    <contour>
      <point x="309" y="727"/>
      <point x="275" y="721"/>
      <point x="244" y="710" type="curve" smooth="yes"/>
      <point x="213" y="699"/>
      <point x="185" y="684"/>
      <point x="161" y="664" type="curve" smooth="yes"/>
      <point x="137" y="644"/>
      <point x="118" y="618"/>
      <point x="103" y="590" type="curve" smooth="yes"/>
      <point x="88" y="562"/>
      <point x="78" y="531"/>
      <point x="74" y="496" type="curve" smooth="yes"/>
      <point x="14" y="0" type="line"/>
      <point x="103" y="0" type="line"/>
      <point x="164" y="493" type="line" smooth="yes"/>
      <point x="167" y="521"/>
      <point x="173" y="545"/>
      <point x="183" y="566" type="curve" smooth="yes"/>
      <point x="193" y="587"/>
      <point x="205" y="605"/>
      <point x="220" y="619" type="curve" smooth="yes"/>
      <point x="235" y="633"/>
      <point x="253" y="643"/>
      <point x="272" y="650" type="curve" smooth="yes"/>
      <point x="291" y="657"/>
      <point x="312" y="661"/>
      <point x="335" y="661" type="curve" smooth="yes"/>
      <point x="356" y="661"/>
      <point x="373" y="659"/>
      <point x="387" y="653" type="curve"/>
      <point x="401" y="648"/>
      <point x="413" y="641"/>
      <point x="421" y="632" type="curve" smooth="yes"/>
      <point x="429" y="623"/>
      <point x="435" y="613"/>
      <point x="438" y="602" type="curve" smooth="yes"/>
      <point x="441" y="591"/>
      <point x="441" y="581"/>
      <point x="440" y="570" type="curve" smooth="yes"/>
      <point x="438" y="554"/>
      <point x="433" y="540"/>
      <point x="424" y="528" type="curve" smooth="yes"/>
      <point x="415" y="516"/>
      <point x="404" y="506"/>
      <point x="392" y="496" type="curve" smooth="yes"/>
      <point x="380" y="486"/>
      <point x="366" y="476"/>
      <point x="352" y="467" type="curve" smooth="yes"/>
      <point x="338" y="458"/>
      <point x="324" y="448"/>
      <point x="312" y="438" type="curve" smooth="yes"/>
      <point x="300" y="428"/>
      <point x="289" y="415"/>
      <point x="280" y="402" type="curve" smooth="yes"/>
      <point x="271" y="389"/>
      <point x="265" y="374"/>
      <point x="263" y="356" type="curve" smooth="yes"/>
      <point x="260" y="334"/>
      <point x="262" y="316"/>
      <point x="270" y="302" type="curve" smooth="yes"/>
      <point x="278" y="288"/>
      <point x="288" y="277"/>
      <point x="301" y="267" type="curve" smooth="yes"/>
      <point x="314" y="257"/>
      <point x="328" y="249"/>
      <point x="343" y="242" type="curve" smooth="yes"/>
      <point x="358" y="235"/>
      <point x="373" y="227"/>
      <point x="386" y="219" type="curve" smooth="yes"/>
      <point x="399" y="211"/>
      <point x="409" y="200"/>
      <point x="417" y="188" type="curve" smooth="yes"/>
      <point x="425" y="176"/>
      <point x="428" y="162"/>
      <point x="426" y="143" type="curve"/>
      <point x="424" y="131"/>
      <point x="421" y="119"/>
      <point x="415" y="108" type="curve" smooth="yes"/>
      <point x="409" y="97"/>
      <point x="402" y="89"/>
      <point x="393" y="81" type="curve" smooth="yes"/>
      <point x="384" y="73"/>
      <point x="373" y="67"/>
      <point x="361" y="63" type="curve" smooth="yes"/>
      <point x="349" y="59"/>
      <point x="335" y="56"/>
      <point x="320" y="56" type="curve" smooth="yes"/>
      <point x="302" y="56"/>
      <point x="288" y="58"/>
      <point x="276" y="63" type="curve" smooth="yes"/>
      <point x="264" y="68"/>
      <point x="253" y="72"/>
      <point x="245" y="78" type="curve" smooth="yes"/>
      <point x="237" y="84"/>
      <point x="230" y="89"/>
      <point x="224" y="94" type="curve" smooth="yes"/>
      <point x="218" y="99"/>
      <point x="211" y="101"/>
      <point x="205" y="101" type="curve" smooth="yes"/>
      <point x="199" y="101"/>
      <point x="195" y="100"/>
      <point x="191" y="98" type="curve" smooth="yes"/>
      <point x="187" y="96"/>
      <point x="183" y="92"/>
      <point x="180" y="88" type="curve" smooth="yes"/>
      <point x="155" y="54" type="line"/>
      <point x="173" y="36"/>
      <point x="194" y="21"/>
      <point x="219" y="9" type="curve" smooth="yes"/>
      <point x="244" y="-3"/>
      <point x="273" y="-8"/>
      <point x="305" y="-8" type="curve" smooth="yes"/>
      <point x="331" y="-8"/>
      <point x="357" y="-5"/>
      <point x="380" y="3" type="curve" smooth="yes"/>
      <point x="403" y="11"/>
      <point x="424" y="22"/>
      <point x="442" y="36" type="curve" smooth="yes"/>
      <point x="460" y="50"/>
      <point x="476" y="68"/>
      <point x="488" y="88" type="curve" smooth="yes"/>
      <point x="500" y="108"/>
      <point x="508" y="131"/>
      <point x="511" y="157" type="curve" smooth="yes"/>
      <point x="514" y="183"/>
      <point x="512" y="205"/>
      <point x="505" y="222" type="curve" smooth="yes"/>
      <point x="498" y="239"/>
      <point x="489" y="252"/>
      <point x="477" y="264" type="curve" smooth="yes"/>
      <point x="465" y="276"/>
      <point x="453" y="286"/>
      <point x="438" y="294" type="curve" smooth="yes"/>
      <point x="423" y="302"/>
      <point x="409" y="309"/>
      <point x="397" y="317" type="curve" smooth="yes"/>
      <point x="385" y="325"/>
      <point x="375" y="332"/>
      <point x="367" y="341" type="curve" smooth="yes"/>
      <point x="359" y="350"/>
      <point x="356" y="361"/>
      <point x="358" y="374" type="curve"/>
      <point x="359" y="385"/>
      <point x="364" y="393"/>
      <point x="372" y="402" type="curve"/>
      <point x="380" y="410"/>
      <point x="390" y="419"/>
      <point x="402" y="427" type="curve" smooth="yes"/>
      <point x="414" y="435"/>
      <point x="426" y="444"/>
      <point x="440" y="452" type="curve" smooth="yes"/>
      <point x="454" y="460"/>
      <point x="466" y="470"/>
      <point x="478" y="481" type="curve" smooth="yes"/>
      <point x="490" y="492"/>
      <point x="500" y="505"/>
      <point x="509" y="519" type="curve" smooth="yes"/>
      <point x="518" y="533"/>
      <point x="524" y="550"/>
      <point x="526" y="570" type="curve" smooth="yes"/>
      <point x="528" y="587"/>
      <point x="527" y="605"/>
      <point x="521" y="623" type="curve" smooth="yes"/>
      <point x="515" y="641"/>
      <point x="505" y="658"/>
      <point x="491" y="674" type="curve" smooth="yes"/>
      <point x="477" y="690"/>
      <point x="458" y="702"/>
      <point x="434" y="712" type="curve" smooth="yes"/>
      <point x="410" y="722"/>
      <point x="380" y="727"/>
      <point x="346" y="727" type="curve" smooth="yes"/>
    </contour>
  </outline>
</glyph>
<glyph name="adieresis" format="1">
  <advance width="513"/>
  <unicode hex="00E4"/>
  <note>
    adieresis
  </note>
  <outline>
    <contour>
      <point x="388" y="1" type="line"/>
      <point x="469" y="1" type="line"/>
      <point x="469" y="44" type="line" smooth="yes"/>
      <point x="469" y="53"/>
      <point x="463" y="61"/>
      <point x="454" y="63" type="curve" smooth="yes"/>
      <point x="446" y="65"/>
      <point x="400" y="73"/>
      <point x="397" y="74" type="curve"/>
      <point x="449" y="491" type="line"/>
      <point x="413" y="507"/>
      <point x="374" y="514"/>
      <point x="325" y="514" type="curve" smooth="yes"/>
      <point x="222" y="514"/>
      <point x="148" y="467"/>
      <point x="97" y="411" type="curve" smooth="yes"/>
      <point x="46" y="355"/>
      <point x="4" y="276"/>
      <point x="4" y="172" type="curve" smooth="yes"/>
      <point x="4" y="75"/>
      <point x="42" y="-6"/>
      <point x="137" y="-6" type="curve" smooth="yes"/>
      <point x="155" y="-6"/>
      <point x="173" y="-3"/>
      <point x="190" y="4" type="curve" smooth="yes"/>
      <point x="250" y="27"/>
      <point x="290" y="78"/>
      <point x="321" y="133" type="curve"/>
      <point x="312" y="32" type="line"/>
      <point x="312" y="12"/>
      <point x="321" y="1"/>
      <point x="342" y="1" type="curve" smooth="yes"/>
    </contour>
    <contour>
      <point x="334" y="268" type="line"/>
      <point x="317" y="214"/>
      <point x="293" y="163"/>
      <point x="263" y="125" type="curve" smooth="yes"/>
      <point x="242" y="98"/>
      <point x="211" y="68"/>
      <point x="170" y="68" type="curve" smooth="yes"/>
      <point x="119" y="68"/>
      <point x="93" y="108"/>
      <point x="93" y="188" type="curve" smooth="yes"/>
      <point x="93" y="266"/>
      <point x="122" y="326"/>
      <point x="158" y="370" type="curve" smooth="yes"/>
      <point x="192" y="411"/>
      <point x="242" y="448"/>
      <point x="313" y="448" type="curve" smooth="yes"/>
      <point x="334" y="448" type="line" smooth="yes"/>
      <point x="341" y="448"/>
      <point x="349" y="446"/>
      <point x="356" y="440" type="curve"/>
    </contour>
    <contour>
      <point x="243" y="652"/>
      <point x="242" y="659"/>
      <point x="240" y="666" type="curve" smooth="yes"/>
      <point x="238" y="673"/>
      <point x="235" y="680"/>
      <point x="230" y="685" type="curve" smooth="yes"/>
      <point x="225" y="690"/>
      <point x="219" y="694"/>
      <point x="213" y="697" type="curve" smooth="yes"/>
      <point x="207" y="700"/>
      <point x="200" y="702"/>
      <point x="192" y="702" type="curve" smooth="yes"/>
      <point x="185" y="702"/>
      <point x="177" y="700"/>
      <point x="170" y="697" type="curve" smooth="yes"/>
      <point x="163" y="694"/>
      <point x="157" y="690"/>
      <point x="151" y="685" type="curve" smooth="yes"/>
      <point x="145" y="680"/>
      <point x="141" y="673"/>
      <point x="137" y="666" type="curve" smooth="yes"/>
      <point x="133" y="659"/>
      <point x="130" y="652"/>
      <point x="129" y="644" type="curve" smooth="yes"/>
      <point x="128" y="636"/>
      <point x="129" y="630"/>
      <point x="131" y="623" type="curve" smooth="yes"/>
      <point x="133" y="616"/>
      <point x="136" y="611"/>
      <point x="141" y="606" type="curve" smooth="yes"/>
      <point x="146" y="601"/>
      <point x="152" y="597"/>
      <point x="158" y="594" type="curve" smooth="yes"/>
      <point x="164" y="591"/>
      <point x="171" y="589"/>
      <point x="178" y="589" type="curve" smooth="yes"/>
      <point x="186" y="589"/>
      <point x="193" y="591"/>
      <point x="200" y="594" type="curve" smooth="yes"/>
      <point x="207" y="597"/>
      <point x="214" y="601"/>
      <point x="220" y="606" type="curve" smooth="yes"/>
      <point x="226" y="611"/>
      <point x="231" y="616"/>
      <point x="235" y="623" type="curve" smooth="yes"/>
      <point x="239" y="630"/>
      <point x="241" y="636"/>
      <point x="242" y="644" type="curve" smooth="yes"/>
    </contour>
    <contour>
      <point x="422" y="652"/>
      <point x="422" y="659"/>
      <point x="420" y="666" type="curve" smooth="yes"/>
      <point x="418" y="673"/>
      <point x="415" y="680"/>
      <point x="410" y="685" type="curve" smooth="yes"/>
      <point x="405" y="690"/>
      <point x="399" y="694"/>
      <point x="393" y="697" type="curve" smooth="yes"/>
      <point x="387" y="700"/>
      <point x="380" y="702"/>
      <point x="372" y="702" type="curve" smooth="yes"/>
      <point x="364" y="702"/>
      <point x="357" y="700"/>
      <point x="350" y="697" type="curve" smooth="yes"/>
      <point x="343" y="694"/>
      <point x="336" y="690"/>
      <point x="330" y="685" type="curve" smooth="yes"/>
      <point x="324" y="680"/>
      <point x="320" y="673"/>
      <point x="316" y="666" type="curve" smooth="yes"/>
      <point x="312" y="659"/>
      <point x="310" y="652"/>
      <point x="309" y="644" type="curve" smooth="yes"/>
      <point x="308" y="636"/>
      <point x="309" y="630"/>
      <point x="311" y="623" type="curve" smooth="yes"/>
      <point x="313" y="616"/>
      <point x="317" y="611"/>
      <point x="321" y="606" type="curve" smooth="yes"/>
      <point x="325" y="601"/>
      <point x="331" y="597"/>
      <point x="337" y="594" type="curve" smooth="yes"/>
      <point x="343" y="591"/>
      <point x="350" y="589"/>
      <point x="358" y="589" type="curve" smooth="yes"/>
      <point x="366" y="589"/>
      <point x="373" y="591"/>
      <point x="380" y="594" type="curve" smooth="yes"/>
      <point x="387" y="597"/>
      <point x="394" y="601"/>
      <point x="400" y="606" type="curve" smooth="yes"/>
      <point x="406" y="611"/>
      <point x="410" y="616"/>
      <point x="414" y="623" type="curve" smooth="yes"/>
      <point x="418" y="630"/>
      <point x="420" y="636"/>
      <point x="421" y="644" type="curve" smooth="yes"/>
    </contour>
  </outline>
</glyph>
<glyph name="oacute" format="1">
  <advance width="511"/>
  <unicode hex="00F3"/>
  <note>
    oacute
  </note>
  <outline>
    <contour>
      <point x="242" y="514"/>
      <point x="208" y="508"/>
      <point x="177" y="496" type="curve" smooth="yes"/>
      <point x="146" y="484"/>
      <point x="118" y="467"/>
      <point x="94" y="444" type="curve" smooth="yes"/>
      <point x="70" y="421"/>
      <point x="51" y="393"/>
      <point x="36" y="361" type="curve" smooth="yes"/>
      <point x="21" y="329"/>
      <point x="10" y="294"/>
      <point x="5" y="254" type="curve" smooth="yes"/>
      <point x="0" y="214"/>
      <point x="2" y="178"/>
      <point x="9" y="146" type="curve" smooth="yes"/>
      <point x="16" y="114"/>
      <point x="30" y="87"/>
      <point x="48" y="64" type="curve" smooth="yes"/>
      <point x="66" y="41"/>
      <point x="89" y="23"/>
      <point x="117" y="11" type="curve" smooth="yes"/>
      <point x="145" y="-1"/>
      <point x="178" y="-7"/>
      <point x="215" y="-7" type="curve" smooth="yes"/>
      <point x="252" y="-7"/>
      <point x="287" y="-1"/>
      <point x="318" y="11" type="curve" smooth="yes"/>
      <point x="349" y="23"/>
      <point x="376" y="41"/>
      <point x="400" y="64" type="curve" smooth="yes"/>
      <point x="424" y="87"/>
      <point x="443" y="114"/>
      <point x="458" y="146" type="curve" smooth="yes"/>
      <point x="473" y="178"/>
      <point x="483" y="214"/>
      <point x="488" y="254" type="curve" smooth="yes"/>
      <point x="493" y="294"/>
      <point x="492" y="329"/>
      <point x="485" y="361" type="curve" smooth="yes"/>
      <point x="478" y="393"/>
      <point x="465" y="421"/>
      <point x="447" y="444" type="curve" smooth="yes"/>
      <point x="429" y="467"/>
      <point x="405" y="484"/>
      <point x="377" y="496" type="curve" smooth="yes"/>
      <point x="349" y="508"/>
      <point x="316" y="514"/>
      <point x="279" y="514" type="curve" smooth="yes"/>
    </contour>
    <contour>
      <point x="199" y="63"/>
      <point x="178" y="67"/>
      <point x="160" y="76" type="curve" smooth="yes"/>
      <point x="142" y="85"/>
      <point x="128" y="97"/>
      <point x="117" y="113" type="curve" smooth="yes"/>
      <point x="106" y="129"/>
      <point x="100" y="148"/>
      <point x="97" y="172" type="curve" smooth="yes"/>
      <point x="94" y="196"/>
      <point x="93" y="223"/>
      <point x="97" y="253" type="curve" smooth="yes"/>
      <point x="101" y="283"/>
      <point x="108" y="310"/>
      <point x="117" y="334" type="curve" smooth="yes"/>
      <point x="126" y="358"/>
      <point x="137" y="378"/>
      <point x="152" y="394" type="curve" smooth="yes"/>
      <point x="167" y="410"/>
      <point x="183" y="423"/>
      <point x="203" y="432" type="curve" smooth="yes"/>
      <point x="223" y="441"/>
      <point x="246" y="445"/>
      <point x="271" y="445" type="curve" smooth="yes"/>
      <point x="321" y="445"/>
      <point x="356" y="428"/>
      <point x="377" y="394" type="curve" smooth="yes"/>
      <point x="398" y="360"/>
      <point x="403" y="313"/>
      <point x="396" y="253" type="curve" smooth="yes"/>
      <point x="389" y="193"/>
      <point x="371" y="147"/>
      <point x="342" y="113" type="curve" smooth="yes"/>
      <point x="313" y="79"/>
      <point x="274" y="63"/>
      <point x="224" y="63" type="curve" smooth="yes"/>
    </contour>
    <contour>
      <point x="451" y="725" type="line"/>
      <point x="364" y="725" type="line" smooth="yes"/>
      <point x="353" y="725"/>
      <point x="345" y="723"/>
      <point x="339" y="719" type="curve"/>
      <point x="333" y="716"/>
      <point x="328" y="711"/>
      <point x="322" y="703" type="curve" smooth="yes"/>
      <point x="233" y="582" type="line"/>
      <point x="286" y="582" type="line" smooth="yes"/>
      <point x="293" y="582"/>
      <point x="299" y="583"/>
      <point x="304" y="585" type="curve" smooth="yes"/>
      <point x="309" y="587"/>
      <point x="314" y="591"/>
      <point x="319" y="596" type="curve" smooth="yes"/>
    </contour>
  </outline>
</glyph>
<glyph name="oslash" format="1">
  <advance width="546"/>
  <unicode hex="00F8"/>
  <note>
    oslash
  </note>
  <outline>
    <contour>
      <point x="559" y="548" type="line"/>
      <point x="514" y="548" type="line" smooth="yes"/>
      <point x="503" y="548"/>
      <point x="495" y="547"/>
      <point x="489" y="543" type="curve" smooth="yes"/>
      <point x="483" y="539"/>
      <point x="476" y="533"/>
      <point x="468" y="524" type="curve" smooth="yes"/>
      <point x="429" y="478" type="line"/>
      <point x="412" y="490"/>
      <point x="392" y="499"/>
      <point x="370" y="505" type="curve" smooth="yes"/>
      <point x="348" y="511"/>
      <point x="324" y="514"/>
      <point x="298" y="514" type="curve" smooth="yes"/>
      <point x="261" y="514"/>
      <point x="227" y="508"/>
      <point x="196" y="496" type="curve" smooth="yes"/>
      <point x="165" y="484"/>
      <point x="137" y="467"/>
      <point x="113" y="444" type="curve" smooth="yes"/>
      <point x="89" y="421"/>
      <point x="70" y="393"/>
      <point x="55" y="361" type="curve" smooth="yes"/>
      <point x="40" y="329"/>
      <point x="29" y="294"/>
      <point x="24" y="254" type="curve" smooth="yes"/>
      <point x="19" y="213"/>
      <point x="20" y="175"/>
      <point x="28" y="143" type="curve" smooth="yes"/>
      <point x="36" y="111"/>
      <point x="50" y="83"/>
      <point x="69" y="60" type="curve"/>
      <point x="-16" y="-38" type="line"/>
      <point x="18" y="-38" type="line" smooth="yes"/>
      <point x="28" y="-38"/>
      <point x="38" y="-36"/>
      <point x="48" y="-32" type="curve" smooth="yes"/>
      <point x="58" y="-28"/>
      <point x="67" y="-21"/>
      <point x="76" y="-11" type="curve" smooth="yes"/>
      <point x="108" y="26" type="line"/>
      <point x="125" y="15"/>
      <point x="144" y="8"/>
      <point x="165" y="2" type="curve" smooth="yes"/>
      <point x="186" y="-4"/>
      <point x="209" y="-7"/>
      <point x="234" y="-7" type="curve" smooth="yes"/>
      <point x="271" y="-7"/>
      <point x="306" y="-1"/>
      <point x="337" y="11" type="curve" smooth="yes"/>
      <point x="368" y="23"/>
      <point x="395" y="41"/>
      <point x="419" y="64" type="curve" smooth="yes"/>
      <point x="443" y="87"/>
      <point x="462" y="114"/>
      <point x="477" y="146" type="curve" smooth="yes"/>
      <point x="492" y="178"/>
      <point x="502" y="214"/>
      <point x="507" y="254" type="curve" smooth="yes"/>
      <point x="512" y="293"/>
      <point x="511" y="328"/>
      <point x="504" y="360" type="curve" smooth="yes"/>
      <point x="497" y="392"/>
      <point x="485" y="419"/>
      <point x="467" y="442" type="curve"/>
    </contour>
    <contour>
      <point x="115" y="283"/>
      <point x="121" y="310"/>
      <point x="131" y="334" type="curve" smooth="yes"/>
      <point x="141" y="358"/>
      <point x="153" y="379"/>
      <point x="168" y="396" type="curve" smooth="yes"/>
      <point x="183" y="413"/>
      <point x="201" y="425"/>
      <point x="221" y="434" type="curve" smooth="yes"/>
      <point x="241" y="443"/>
      <point x="265" y="448"/>
      <point x="290" y="448" type="curve" smooth="yes"/>
      <point x="327" y="448"/>
      <point x="357" y="439"/>
      <point x="379" y="420" type="curve"/>
      <point x="124" y="125" type="line"/>
      <point x="108" y="157"/>
      <point x="104" y="200"/>
      <point x="111" y="253" type="curve" smooth="yes"/>
    </contour>
    <contour>
      <point x="208" y="60"/>
      <point x="178" y="68"/>
      <point x="157" y="84" type="curve"/>
      <point x="410" y="377" type="line"/>
      <point x="423" y="345"/>
      <point x="427" y="303"/>
      <point x="421" y="253" type="curve" smooth="yes"/>
      <point x="417" y="223"/>
      <point x="411" y="196"/>
      <point x="401" y="172" type="curve" smooth="yes"/>
      <point x="391" y="148"/>
      <point x="379" y="129"/>
      <point x="364" y="112" type="curve" smooth="yes"/>
      <point x="349" y="95"/>
      <point x="330" y="82"/>
      <point x="310" y="73" type="curve" smooth="yes"/>
      <point x="290" y="64"/>
      <point x="268" y="60"/>
      <point x="243" y="60" type="curve" smooth="yes"/>
    </contour>
  </outline>
</glyph>
<glyph name="udieresis" format="1">
  <advance width="570"/>
  <unicode hex="00FC"/>
  <note>
    udieresis
  </note>
  <outline>
    <contour>
      <point x="194" y="63"/>
      <point x="169" y="73"/>
      <point x="154" y="94" type="curve" smooth="yes"/>
      <point x="139" y="115"/>
      <point x="133" y="146"/>
      <point x="138" y="184" type="curve" smooth="yes"/>
      <point x="178" y="506" type="line"/>
      <point x="17" y="506" type="line"/>
      <point x="12" y="464" type="line" smooth="yes"/>
      <point x="11" y="454"/>
      <point x="14" y="447"/>
      <point x="24" y="445" type="curve" smooth="yes"/>
      <point x="30" y="444"/>
      <point x="49" y="440"/>
      <point x="80" y="434" type="curve"/>
      <point x="49" y="184" type="line" smooth="yes"/>
      <point x="42" y="125"/>
      <point x="50" y="77"/>
      <point x="75" y="44" type="curve" smooth="yes"/>
      <point x="101" y="9"/>
      <point x="141" y="-8"/>
      <point x="195" y="-8" type="curve" smooth="yes"/>
      <point x="258" y="-8"/>
      <point x="318" y="19"/>
      <point x="373" y="73" type="curve"/>
      <point x="374" y="18" type="line"/>
      <point x="376" y="6"/>
      <point x="382" y="0"/>
      <point x="395" y="0" type="curve" smooth="yes"/>
      <point x="521" y="0" type="line"/>
      <point x="526" y="43" type="line" smooth="yes"/>
      <point x="527" y="53"/>
      <point x="523" y="60"/>
      <point x="513" y="62" type="curve" smooth="yes"/>
      <point x="507" y="63"/>
      <point x="489" y="67"/>
      <point x="457" y="73" type="curve"/>
      <point x="510" y="506" type="line"/>
      <point x="421" y="506" type="line"/>
      <point x="349" y="506" type="line"/>
      <point x="344" y="464" type="line" smooth="yes"/>
      <point x="343" y="454"/>
      <point x="347" y="447"/>
      <point x="357" y="445" type="curve" smooth="yes"/>
      <point x="388" y="439"/>
      <point x="407" y="435"/>
      <point x="413" y="434" type="curve"/>
      <point x="376" y="133" type="line"/>
      <point x="329" y="86"/>
      <point x="280" y="63"/>
      <point x="230" y="63" type="curve" smooth="yes"/>
    </contour>
    <contour>
      <point x="288" y="652"/>
      <point x="287" y="659"/>
      <point x="285" y="666" type="curve" smooth="yes"/>
      <point x="283" y="673"/>
      <point x="280" y="680"/>
      <point x="275" y="685" type="curve" smooth="yes"/>
      <point x="270" y="690"/>
      <point x="264" y="694"/>
      <point x="258" y="697" type="curve" smooth="yes"/>
      <point x="252" y="700"/>
      <point x="245" y="702"/>
      <point x="237" y="702" type="curve" smooth="yes"/>
      <point x="230" y="702"/>
      <point x="222" y="700"/>
      <point x="215" y="697" type="curve" smooth="yes"/>
      <point x="208" y="694"/>
      <point x="202" y="690"/>
      <point x="196" y="685" type="curve" smooth="yes"/>
      <point x="190" y="680"/>
      <point x="186" y="673"/>
      <point x="182" y="666" type="curve" smooth="yes"/>
      <point x="178" y="659"/>
      <point x="175" y="652"/>
      <point x="174" y="644" type="curve" smooth="yes"/>
      <point x="173" y="636"/>
      <point x="174" y="630"/>
      <point x="176" y="623" type="curve" smooth="yes"/>
      <point x="178" y="616"/>
      <point x="181" y="611"/>
      <point x="186" y="606" type="curve" smooth="yes"/>
      <point x="191" y="601"/>
      <point x="197" y="597"/>
      <point x="203" y="594" type="curve" smooth="yes"/>
      <point x="209" y="591"/>
      <point x="216" y="589"/>
      <point x="223" y="589" type="curve" smooth="yes"/>
      <point x="231" y="589"/>
      <point x="238" y="591"/>
      <point x="245" y="594" type="curve" smooth="yes"/>
      <point x="252" y="597"/>
      <point x="259" y="601"/>
      <point x="265" y="606" type="curve" smooth="yes"/>
      <point x="271" y="611"/>
      <point x="276" y="616"/>
      <point x="280" y="623" type="curve" smooth="yes"/>
      <point x="284" y="630"/>
      <point x="286" y="636"/>
      <point x="287" y="644" type="curve" smooth="yes"/>
    </contour>
    <contour>
      <point x="467" y="652"/>
      <point x="467" y="659"/>
      <point x="465" y="666" type="curve" smooth="yes"/>
      <point x="463" y="673"/>
      <point x="460" y="680"/>
      <point x="455" y="685" type="curve" smooth="yes"/>
      <point x="450" y="690"/>
      <point x="444" y="694"/>
      <point x="438" y="697" type="curve" smooth="yes"/>
      <point x="432" y="700"/>
      <point x="425" y="702"/>
      <point x="417" y="702" type="curve" smooth="yes"/>
      <point x="409" y="702"/>
      <point x="402" y="700"/>
      <point x="395" y="697" type="curve" smooth="yes"/>
      <point x="388" y="694"/>
      <point x="381" y="690"/>
      <point x="375" y="685" type="curve" smooth="yes"/>
      <point x="369" y="680"/>
      <point x="365" y="673"/>
      <point x="361" y="666" type="curve" smooth="yes"/>
      <point x="357" y="659"/>
      <point x="355" y="652"/>
      <point x="354" y="644" type="curve" smooth="yes"/>
      <point x="353" y="636"/>
      <point x="354" y="630"/>
      <point x="356" y="623" type="curve" smooth="yes"/>
      <point x="358" y="616"/>
      <point x="362" y="611"/>
      <point x="366" y="606" type="curve" smooth="yes"/>
      <point x="370" y="601"/>
      <point x="376" y="597"/>
      <point x="382" y="594" type="curve" smooth="yes"/>
      <point x="388" y="591"/>
      <point x="395" y="589"/>
      <point x="403" y="589" type="curve" smooth="yes"/>
      <point x="411" y="589"/>
      <point x="418" y="591"/>
      <point x="425" y="594" type="curve" smooth="yes"/>
      <point x="432" y="597"/>
      <point x="439" y="601"/>
      <point x="445" y="606" type="curve" smooth="yes"/>
      <point x="451" y="611"/>
      <point x="455" y="616"/>
      <point x="459" y="623" type="curve" smooth="yes"/>
      <point x="463" y="630"/>
      <point x="465" y="636"/>
      <point x="466" y="644" type="curve" smooth="yes"/>
    </contour>
  </outline>
</glyph>
<glyph name="yacute" format="1">
  <advance width="555"/>
  <unicode hex="00FD"/>
  <note>
    yacute
  </note>
  <outline>
    <contour>
      <point x="536" y="506" type="line"/>
      <point x="348" y="506" type="line"/>
      <point x="343" y="464" type="line" smooth="yes"/>
      <point x="342" y="454"/>
      <point x="346" y="447"/>
      <point x="355" y="445" type="curve" smooth="yes"/>
      <point x="364" y="443"/>
      <point x="382" y="439"/>
      <point x="408" y="434" type="curve"/>
      <point x="266" y="170" type="line" smooth="yes"/>
      <point x="261" y="160"/>
      <point x="254" y="144"/>
      <point x="246" y="124" type="curve"/>
      <point x="244" y="140"/>
      <point x="242" y="156"/>
      <point x="238" y="169" type="curve" smooth="yes"/>
      <point x="158" y="434" type="line"/>
      <point x="190" y="440"/>
      <point x="209" y="444"/>
      <point x="214" y="445" type="curve" smooth="yes"/>
      <point x="224" y="447"/>
      <point x="230" y="454"/>
      <point x="231" y="464" type="curve" smooth="yes"/>
      <point x="236" y="506" type="line"/>
      <point x="9" y="506" type="line"/>
      <point x="4" y="464" type="line" smooth="yes"/>
      <point x="3" y="454"/>
      <point x="7" y="447"/>
      <point x="17" y="445" type="curve" smooth="yes"/>
      <point x="23" y="444"/>
      <point x="37" y="441"/>
      <point x="61" y="436" type="curve"/>
      <point x="189" y="30" type="line"/>
      <point x="72" y="-172" type="line"/>
      <point x="138" y="-172" type="line" smooth="yes"/>
      <point x="153" y="-172"/>
      <point x="165" y="-165"/>
      <point x="173" y="-150" type="curve" smooth="yes"/>
      <point x="496" y="434" type="line"/>
      <point x="499" y="434"/>
      <point x="508" y="437"/>
      <point x="523" y="440" type="curve" smooth="yes"/>
      <point x="538" y="443"/>
      <point x="547" y="444"/>
      <point x="550" y="445" type="curve"/>
      <point x="560" y="447"/>
      <point x="566" y="454"/>
      <point x="567" y="464" type="curve" smooth="yes"/>
      <point x="572" y="506" type="line"/>
    </contour>
    <contour>
      <point x="471" y="724" type="line"/>
      <point x="384" y="724" type="line" smooth="yes"/>
      <point x="373" y="724"/>
      <point x="365" y="723"/>
      <point x="359" y="719" type="curve"/>
      <point x="353" y="716"/>
      <point x="348" y="710"/>
      <point x="342" y="702" type="curve" smooth="yes"/>
      <point x="253" y="582" type="line"/>
      <point x="306" y="582" type="line" smooth="yes"/>
      <point x="313" y="582"/>
      <point x="319" y="583"/>
      <point x="324" y="585" type="curve" smooth="yes"/>
      <point x="329" y="587"/>
      <point x="334" y="591"/>
      <point x="339" y="596" type="curve" smooth="yes"/>
    </contour>
  </outline>
</glyph>
<glyph name="Cacute" format="1">
  <advance width="619"/>
  <unicode hex="0106"/>
  <note>
    Cacute
  </note>
  <outline>
    <contour>
      <point x="318" y="724"/>
      <point x="225" y="690"/>
      <point x="150" y="622" type="curve" smooth="yes"/>
      <point x="75" y="554"/>
      <point x="31" y="466"/>
      <point x="18" y="358" type="curve" smooth="yes"/>
      <point x="5" y="249"/>
      <point x="25" y="161"/>
      <point x="79" y="94" type="curve" smooth="yes"/>
      <point x="133" y="26"/>
      <point x="212" y="-8"/>
      <point x="315" y="-8" type="curve" smooth="yes"/>
      <point x="425" y="-8"/>
      <point x="515" y="28"/>
      <point x="586" y="100" type="curve"/>
      <point x="553" y="142" type="line"/>
      <point x="549" y="146"/>
      <point x="544" y="148"/>
      <point x="539" y="148" type="curve" smooth="yes"/>
      <point x="534" y="148"/>
      <point x="528" y="145"/>
      <point x="522" y="140" type="curve" smooth="yes"/>
      <point x="493" y="117"/>
      <point x="461" y="100"/>
      <point x="427" y="88" type="curve" smooth="yes"/>
      <point x="405" y="80"/>
      <point x="373" y="76"/>
      <point x="331" y="76" type="curve" smooth="yes"/>
      <point x="259" y="76"/>
      <point x="202" y="100"/>
      <point x="163" y="150" type="curve" smooth="yes"/>
      <point x="121" y="202"/>
      <point x="106" y="271"/>
      <point x="117" y="358" type="curve" smooth="yes"/>
      <point x="128" y="444"/>
      <point x="160" y="513"/>
      <point x="215" y="564" type="curve" smooth="yes"/>
      <point x="300" y="644"/>
      <point x="415" y="661"/>
      <point x="559" y="614" type="curve"/>
      <point x="559" y="610"/>
      <point x="558" y="594"/>
      <point x="557" y="568" type="curve" smooth="yes"/>
      <point x="556" y="542"/>
      <point x="555" y="527"/>
      <point x="556" y="523" type="curve"/>
      <point x="557" y="512"/>
      <point x="563" y="506"/>
      <point x="574" y="506" type="curve" smooth="yes"/>
      <point x="623" y="506" type="line"/>
      <point x="636" y="617" type="line"/>
      <point x="643" y="673" type="line"/>
      <point x="556" y="707"/>
      <point x="485" y="724"/>
      <point x="428" y="724" type="curve" smooth="yes"/>
    </contour>
    <contour>
      <point x="612" y="891" type="line"/>
      <point x="511" y="891" type="line" smooth="yes"/>
      <point x="505" y="891"/>
      <point x="501" y="890"/>
      <point x="497" y="890" type="curve" smooth="yes"/>
      <point x="493" y="890"/>
      <point x="490" y="889"/>
      <point x="487" y="888" type="curve" smooth="yes"/>
      <point x="484" y="887"/>
      <point x="481" y="884"/>
      <point x="478" y="882" type="curve" smooth="yes"/>
      <point x="475" y="880"/>
      <point x="471" y="877"/>
      <point x="467" y="874" type="curve"/>
      <point x="349" y="773" type="line"/>
      <point x="418" y="773" type="line" smooth="yes"/>
      <point x="425" y="773"/>
      <point x="431" y="774"/>
      <point x="436" y="775" type="curve"/>
      <point x="440" y="776"/>
      <point x="446" y="779"/>
      <point x="452" y="783" type="curve" smooth="yes"/>
    </contour>
  </outline>
</glyph>
<glyph name="Eogonek" format="1">
  <advance width="573"/>
  <unicode hex="0118"/>
  <note>
    Eogonek
  </note>
  <outline>
    <contour>
      <point x="486" y="-112" type="line"/>
      <point x="486" y="-110"/>
      <point x="484" y="-108"/>
      <point x="483" y="-107" type="curve" smooth="yes"/>
      <point x="482" y="-106"/>
      <point x="480" y="-105"/>
      <point x="478" y="-105" type="curve" smooth="yes"/>
      <point x="476" y="-105"/>
      <point x="474" y="-106"/>
      <point x="472" y="-107" type="curve" smooth="yes"/>
      <point x="470" y="-108"/>
      <point x="467" y="-110"/>
      <point x="463" y="-112" type="curve" smooth="yes"/>
      <point x="459" y="-114"/>
      <point x="455" y="-115"/>
      <point x="450" y="-116" type="curve" smooth="yes"/>
      <point x="445" y="-117"/>
      <point x="439" y="-117"/>
      <point x="431" y="-117" type="curve" smooth="yes"/>
      <point x="417" y="-117"/>
      <point x="406" y="-114"/>
      <point x="399" y="-107" type="curve" smooth="yes"/>
      <point x="392" y="-100"/>
      <point x="388" y="-90"/>
      <point x="390" y="-77" type="curve"/>
      <point x="391" y="-68"/>
      <point x="394" y="-60"/>
      <point x="399" y="-52" type="curve" smooth="yes"/>
      <point x="404" y="-44"/>
      <point x="409" y="-37"/>
      <point x="415" y="-31" type="curve"/>
      <point x="421" y="-24"/>
      <point x="428" y="-18"/>
      <point x="436" y="-13" type="curve" smooth="yes"/>
      <point x="444" y="-8"/>
      <point x="452" y="-4"/>
      <point x="459" y="0" type="curve"/>
      <point x="504" y="0" type="line"/>
      <point x="514" y="79" type="line"/>
      <point x="525" y="167" type="line"/>
      <point x="476" y="167" type="line" smooth="yes"/>
      <point x="466" y="167"/>
      <point x="456" y="160"/>
      <point x="453" y="150" type="curve" smooth="yes"/>
      <point x="452" y="147"/>
      <point x="445" y="111"/>
      <point x="438" y="79" type="curve"/>
      <point x="170" y="79" type="line"/>
      <point x="200" y="323" type="line"/>
      <point x="464" y="323" type="line"/>
      <point x="473" y="400" type="line"/>
      <point x="209" y="400" type="line"/>
      <point x="238" y="637" type="line"/>
      <point x="507" y="637" type="line"/>
      <point x="506" y="603"/>
      <point x="504" y="565"/>
      <point x="504" y="561" type="curve"/>
      <point x="505" y="551"/>
      <point x="513" y="544"/>
      <point x="523" y="544" type="curve" smooth="yes"/>
      <point x="571" y="544" type="line"/>
      <point x="582" y="637" type="line"/>
      <point x="590" y="696" type="line"/>
      <point x="592" y="716" type="line"/>
      <point x="151" y="716" type="line"/>
      <point x="78" y="716" type="line" smooth="yes"/>
      <point x="78" y="716"/>
      <point x="74" y="682"/>
      <point x="73" y="673" type="curve" smooth="yes"/>
      <point x="72" y="664"/>
      <point x="77" y="657"/>
      <point x="86" y="655" type="curve" smooth="yes"/>
      <point x="95" y="653"/>
      <point x="142" y="644"/>
      <point x="142" y="644" type="curve"/>
      <point x="72" y="73" type="line"/>
      <point x="72" y="73"/>
      <point x="22" y="64"/>
      <point x="13" y="62" type="curve" smooth="yes"/>
      <point x="4" y="60"/>
      <point x="-3" y="52"/>
      <point x="-4" y="43" type="curve" smooth="yes"/>
      <point x="-5" y="34"/>
      <point x="-10" y="0"/>
      <point x="-10" y="0" type="curve"/>
      <point x="63" y="0" type="line"/>
      <point x="402" y="0" type="line"/>
      <point x="380" y="-13"/>
      <point x="361" y="-27"/>
      <point x="346" y="-44" type="curve" smooth="yes"/>
      <point x="331" y="-61"/>
      <point x="322" y="-79"/>
      <point x="320" y="-98" type="curve" smooth="yes"/>
      <point x="317" y="-120"/>
      <point x="324" y="-138"/>
      <point x="339" y="-151" type="curve" smooth="yes"/>
      <point x="354" y="-164"/>
      <point x="377" y="-171"/>
      <point x="406" y="-171" type="curve" smooth="yes"/>
      <point x="423" y="-171"/>
      <point x="439" y="-169"/>
      <point x="455" y="-164" type="curve" smooth="yes"/>
      <point x="471" y="-159"/>
      <point x="485" y="-153"/>
      <point x="496" y="-145" type="curve"/>
    </contour>
  </outline>
</glyph>
<glyph name="sacute" format="1">
  <advance width="417"/>
  <unicode hex="015B"/>
  <note>
    sacute
  </note>
  <outline>
    <contour>
      <point x="195" y="514"/>
      <point x="146" y="500"/>
      <point x="109" y="470" type="curve" smooth="yes"/>
      <point x="74" y="443"/>
      <point x="55" y="409"/>
      <point x="50" y="368" type="curve" smooth="yes"/>
      <point x="45" y="329"/>
      <point x="54" y="297"/>
      <point x="79" y="274" type="curve" smooth="yes"/>
      <point x="90" y="264"/>
      <point x="105" y="255"/>
      <point x="122" y="247" type="curve" smooth="yes"/>
      <point x="139" y="239"/>
      <point x="169" y="229"/>
      <point x="211" y="215" type="curve" smooth="yes"/>
      <point x="226" y="210"/>
      <point x="239" y="204"/>
      <point x="251" y="198" type="curve" smooth="yes"/>
      <point x="263" y="192"/>
      <point x="272" y="183"/>
      <point x="278" y="174" type="curve" smooth="yes"/>
      <point x="284" y="165"/>
      <point x="286" y="151"/>
      <point x="284" y="132" type="curve" smooth="yes"/>
      <point x="282" y="113"/>
      <point x="271" y="96"/>
      <point x="252" y="81" type="curve" smooth="yes"/>
      <point x="231" y="64"/>
      <point x="204" y="56"/>
      <point x="171" y="56" type="curve" smooth="yes"/>
      <point x="131" y="56"/>
      <point x="98" y="63"/>
      <point x="71" y="76" type="curve"/>
      <point x="73" y="116"/>
      <point x="73" y="137"/>
      <point x="73" y="140" type="curve"/>
      <point x="72" y="148"/>
      <point x="67" y="152"/>
      <point x="59" y="152" type="curve" smooth="yes"/>
      <point x="24" y="152" type="line"/>
      <point x="8" y="20" type="line"/>
      <point x="60" y="1"/>
      <point x="113" y="-7"/>
      <point x="168" y="-7" type="curve" smooth="yes"/>
      <point x="223" y="-7"/>
      <point x="269" y="8"/>
      <point x="307" y="39" type="curve" smooth="yes"/>
      <point x="344" y="68"/>
      <point x="365" y="107"/>
      <point x="371" y="155" type="curve" smooth="yes"/>
      <point x="376" y="192"/>
      <point x="366" y="222"/>
      <point x="341" y="244" type="curve" smooth="yes"/>
      <point x="330" y="254"/>
      <point x="317" y="262"/>
      <point x="302" y="269" type="curve" smooth="yes"/>
      <point x="287" y="276"/>
      <point x="272" y="281"/>
      <point x="256" y="287" type="curve"/>
      <point x="240" y="292"/>
      <point x="220" y="299"/>
      <point x="196" y="307" type="curve" smooth="yes"/>
      <point x="172" y="315"/>
      <point x="154" y="326"/>
      <point x="143" y="342" type="curve"/>
      <point x="136" y="351"/>
      <point x="134" y="364"/>
      <point x="136" y="381" type="curve" smooth="yes"/>
      <point x="138" y="398"/>
      <point x="149" y="413"/>
      <point x="168" y="427" type="curve" smooth="yes"/>
      <point x="187" y="441"/>
      <point x="212" y="448"/>
      <point x="240" y="448" type="curve" smooth="yes"/>
      <point x="241" y="448" type="line" smooth="yes"/>
      <point x="263" y="448"/>
      <point x="288" y="445"/>
      <point x="317" y="438" type="curve"/>
      <point x="315" y="396"/>
      <point x="315" y="373"/>
      <point x="315" y="372" type="curve"/>
      <point x="316" y="363"/>
      <point x="321" y="358"/>
      <point x="331" y="358" type="curve" smooth="yes"/>
      <point x="370" y="358" type="line"/>
      <point x="382" y="453" type="line"/>
      <point x="386" y="488" type="line"/>
      <point x="335" y="506"/>
      <point x="292" y="514"/>
      <point x="257" y="514" type="curve" smooth="yes"/>
    </contour>
    <contour>
      <point x="431" y="725" type="line"/>
      <point x="344" y="725" type="line" smooth="yes"/>
      <point x="333" y="725"/>
      <point x="325" y="723"/>
      <point x="319" y="719" type="curve"/>
      <point x="313" y="716"/>
      <point x="308" y="711"/>
      <point x="302" y="703" type="curve" smooth="yes"/>
      <point x="213" y="582" type="line"/>
      <point x="266" y="582" type="line" smooth="yes"/>
      <point x="273" y="582"/>
      <point x="279" y="583"/>
      <point x="284" y="585" type="curve" smooth="yes"/>
      <point x="289" y="587"/>
      <point x="294" y="591"/>
      <point x="299" y="596" type="curve" smooth="yes"/>
    </contour>
  </outline>
</glyph>
<glyph name="zacute" format="1">
  <advance width="453"/>
  <unicode hex="017A"/>
  <note>
    zacute
  </note>
  <outline>
    <contour>
      <point x="124" y="506" type="line"/>
      <point x="73" y="506" type="line"/>
      <point x="56" y="363" type="line"/>
      <point x="91" y="363" type="line" smooth="yes"/>
      <point x="99" y="363"/>
      <point x="105" y="368"/>
      <point x="108" y="376" type="curve"/>
      <point x="109" y="380"/>
      <point x="113" y="399"/>
      <point x="121" y="436" type="curve"/>
      <point x="337" y="436" type="line"/>
      <point x="16" y="69" type="line" smooth="yes"/>
      <point x="6" y="58"/>
      <point x="1" y="47"/>
      <point x="0" y="37" type="curve" smooth="yes"/>
      <point x="-4" y="0" type="line"/>
      <point x="382" y="0" type="line"/>
      <point x="401" y="148" type="line"/>
      <point x="365" y="148" type="line" smooth="yes"/>
      <point x="356" y="148"/>
      <point x="351" y="144"/>
      <point x="348" y="136" type="curve"/>
      <point x="347" y="132"/>
      <point x="343" y="111"/>
      <point x="335" y="70" type="curve"/>
      <point x="109" y="70" type="line"/>
      <point x="428" y="434" type="line" smooth="yes"/>
      <point x="438" y="445"/>
      <point x="444" y="456"/>
      <point x="445" y="468" type="curve" smooth="yes"/>
      <point x="449" y="506" type="line"/>
    </contour>
    <contour>
      <point x="438" y="724" type="line"/>
      <point x="351" y="724" type="line" smooth="yes"/>
      <point x="340" y="724"/>
      <point x="332" y="723"/>
      <point x="326" y="719" type="curve"/>
      <point x="320" y="716"/>
      <point x="315" y="710"/>
      <point x="309" y="702" type="curve" smooth="yes"/>
      <point x="220" y="582" type="line"/>
      <point x="273" y="582" type="line" smooth="yes"/>
      <point x="280" y="582"/>
      <point x="286" y="583"/>
      <point x="291" y="585" type="curve" smooth="yes"/>
      <point x="296" y="587"/>
      <point x="301" y="591"/>
      <point x="306" y="596" type="curve" smooth="yes"/>
    </contour>
  </outline>
</glyph>
<glyph name="zdotaccent" format="1">
  <advance width="451"/>
  <unicode hex="017C"/>
  <note>
    zdotaccent
  </note>
  <outline>
    <contour>
      <point x="124" y="506" type="line"/>
      <point x="74" y="506" type="line"/>
      <point x="56" y="363" type="line"/>
      <point x="92" y="363" type="line" smooth="yes"/>
      <point x="100" y="363"/>
      <point x="105" y="368"/>
      <point x="108" y="376" type="curve"/>
      <point x="109" y="380"/>
      <point x="113" y="399"/>
      <point x="121" y="436" type="curve"/>
      <point x="338" y="436" type="line"/>
      <point x="17" y="69" type="line" smooth="yes"/>
      <point x="7" y="58"/>
      <point x="2" y="47"/>
      <point x="1" y="37" type="curve" smooth="yes"/>
      <point x="-4" y="0" type="line"/>
      <point x="383" y="0" type="line"/>
      <point x="401" y="148" type="line"/>
      <point x="366" y="148" type="line" smooth="yes"/>
      <point x="357" y="148"/>
      <point x="352" y="144"/>
      <point x="349" y="136" type="curve"/>
      <point x="348" y="132"/>
      <point x="343" y="111"/>
      <point x="335" y="70" type="curve"/>
      <point x="110" y="70" type="line"/>
      <point x="428" y="434" type="line" smooth="yes"/>
      <point x="438" y="445"/>
      <point x="444" y="456"/>
      <point x="445" y="468" type="curve"/>
      <point x="450" y="506" type="line"/>
    </contour>
    <contour>
      <point x="351" y="678"/>
      <point x="351" y="686"/>
      <point x="348" y="694" type="curve" smooth="yes"/>
      <point x="345" y="702"/>
      <point x="341" y="708"/>
      <point x="336" y="714" type="curve" smooth="yes"/>
      <point x="331" y="720"/>
      <point x="325" y="725"/>
      <point x="318" y="728" type="curve" smooth="yes"/>
      <point x="311" y="731"/>
      <point x="303" y="733"/>
      <point x="294" y="733" type="curve" smooth="yes"/>
      <point x="285" y="733"/>
      <point x="277" y="731"/>
      <point x="269" y="728" type="curve" smooth="yes"/>
      <point x="261" y="725"/>
      <point x="254" y="720"/>
      <point x="248" y="714" type="curve" smooth="yes"/>
      <point x="242" y="708"/>
      <point x="236" y="702"/>
      <point x="232" y="694" type="curve" smooth="yes"/>
      <point x="228" y="686"/>
      <point x="225" y="678"/>
      <point x="224" y="669" type="curve" smooth="yes"/>
      <point x="223" y="660"/>
      <point x="224" y="653"/>
      <point x="226" y="645" type="curve" smooth="yes"/>
      <point x="228" y="638"/>
      <point x="232" y="631"/>
      <point x="237" y="625" type="curve" smooth="yes"/>
      <point x="242" y="619"/>
      <point x="248" y="614"/>
      <point x="255" y="611" type="curve" smooth="yes"/>
      <point x="262" y="608"/>
      <point x="269" y="606"/>
      <point x="278" y="606" type="curve" smooth="yes"/>
      <point x="287" y="606"/>
      <point x="296" y="608"/>
      <point x="304" y="611" type="curve" smooth="yes"/>
      <point x="312" y="614"/>
      <point x="318" y="619"/>
      <point x="325" y="625" type="curve" smooth="yes"/>
      <point x="332" y="631"/>
      <point x="338" y="637"/>
      <point x="342" y="645" type="curve" smooth="yes"/>
      <point x="346" y="653"/>
      <point x="349" y="660"/>
      <point x="350" y="669" type="curve" smooth="yes"/>
    </contour>
  </outline>
</glyph>
<glyph name="dotaccent" format="1">
  <advance width="230"/>
  <unicode hex="02D9"/>
  <note>
    dotaccent
  </note>
  <outline>
    <contour>
      <point x="193" y="606"/>
      <point x="225" y="635"/>
      <point x="229" y="670" type="curve" smooth="yes"/>
      <point x="233" y="704"/>
      <point x="209" y="733"/>
      <point x="173" y="733" type="curve" smooth="yes"/>
      <point x="137" y="733"/>
      <point x="105" y="704"/>
      <point x="101" y="670" type="curve" smooth="yes"/>
      <point x="97" y="635"/>
      <point x="122" y="606"/>
      <point x="157" y="606" type="curve" smooth="yes"/>
    </contour>
  </outline>
</glyph>
<glyph name="cedillacomb" format="1">
  <advance width="276"/>
  <unicode hex="0327"/>
  <outline>
    <component base="cedilla"/>
    <contour>
      <point x="111" y="0" type="move" name="_bottom"/>
    </contour>
    <contour>
      <point x="90" y="-176" type="move" name="bottom"/>
    </contour>
  </outline>
</glyph>
<glyph name="quotedblleft" format="1">
  <advance width="363"/>
  <unicode hex="201C"/>
  <note>
    quotedblleft
  </note>
  <outline>
    <contour>
      <point x="130" y="528" type="line"/>
      <point x="139" y="531"/>
      <point x="144" y="537"/>
      <point x="145" y="545" type="curve"/>
      <point x="145" y="549"/>
      <point x="145" y="552"/>
      <point x="143" y="556" type="curve" smooth="yes"/>
      <point x="137" y="569"/>
      <point x="133" y="581"/>
      <point x="131" y="592" type="curve" smooth="yes"/>
      <point x="129" y="603"/>
      <point x="130" y="615"/>
      <point x="131" y="626" type="curve" smooth="yes"/>
      <point x="132" y="636"/>
      <point x="135" y="645"/>
      <point x="138" y="654" type="curve" smooth="yes"/>
      <point x="141" y="663"/>
      <point x="145" y="672"/>
      <point x="150" y="680" type="curve" smooth="yes"/>
      <point x="155" y="688"/>
      <point x="161" y="696"/>
      <point x="167" y="703" type="curve" smooth="yes"/>
      <point x="185" y="724" type="line"/>
      <point x="189" y="727"/>
      <point x="190" y="731"/>
      <point x="191" y="736" type="curve"/>
      <point x="191" y="738"/>
      <point x="192" y="740"/>
      <point x="191" y="742" type="curve" smooth="yes"/>
      <point x="190" y="744"/>
      <point x="188" y="746"/>
      <point x="186" y="748" type="curve"/>
      <point x="161" y="764" type="line"/>
      <point x="132" y="741"/>
      <point x="107" y="717"/>
      <point x="89" y="689" type="curve" smooth="yes"/>
      <point x="71" y="661"/>
      <point x="60" y="632"/>
      <point x="56" y="602" type="curve" smooth="yes"/>
      <point x="54" y="586"/>
      <point x="54" y="570"/>
      <point x="57" y="554" type="curve" smooth="yes"/>
      <point x="60" y="538"/>
      <point x="64" y="522"/>
      <point x="72" y="506" type="curve"/>
    </contour>
    <contour>
      <point x="282" y="528" type="line"/>
      <point x="291" y="531"/>
      <point x="296" y="537"/>
      <point x="297" y="545" type="curve"/>
      <point x="297" y="549"/>
      <point x="297" y="552"/>
      <point x="295" y="556" type="curve" smooth="yes"/>
      <point x="289" y="569"/>
      <point x="285" y="581"/>
      <point x="283" y="592" type="curve" smooth="yes"/>
      <point x="281" y="603"/>
      <point x="282" y="614"/>
      <point x="283" y="625" type="curve" smooth="yes"/>
      <point x="284" y="635"/>
      <point x="287" y="645"/>
      <point x="290" y="654" type="curve" smooth="yes"/>
      <point x="293" y="663"/>
      <point x="297" y="672"/>
      <point x="302" y="680" type="curve" smooth="yes"/>
      <point x="307" y="688"/>
      <point x="313" y="696"/>
      <point x="319" y="703" type="curve" smooth="yes"/>
      <point x="337" y="724" type="line"/>
      <point x="341" y="727"/>
      <point x="342" y="731"/>
      <point x="343" y="736" type="curve"/>
      <point x="343" y="738"/>
      <point x="344" y="740"/>
      <point x="343" y="742" type="curve" smooth="yes"/>
      <point x="342" y="744"/>
      <point x="340" y="745"/>
      <point x="338" y="747" type="curve"/>
      <point x="313" y="764" type="line"/>
      <point x="284" y="741"/>
      <point x="259" y="717"/>
      <point x="241" y="689" type="curve" smooth="yes"/>
      <point x="223" y="661"/>
      <point x="212" y="632"/>
      <point x="208" y="602" type="curve" smooth="yes"/>
      <point x="206" y="586"/>
      <point x="206" y="570"/>
      <point x="209" y="554" type="curve" smooth="yes"/>
      <point x="212" y="538"/>
      <point x="216" y="522"/>
      <point x="224" y="506" type="curve"/>
    </contour>
  </outline>
</glyph>
<glyph name="quotedblright" format="1">
  <advance width="360"/>
  <unicode hex="201D"/>
  <note>
    quotedblright
  </note>
  <outline>
    <contour>
      <point x="104" y="732" type="line"/>
      <point x="95" y="728"/>
      <point x="89" y="722"/>
      <point x="88" y="714" type="curve"/>
      <point x="88" y="710"/>
      <point x="89" y="708"/>
      <point x="91" y="704" type="curve" smooth="yes"/>
      <point x="97" y="691"/>
      <point x="100" y="679"/>
      <point x="102" y="668" type="curve" smooth="yes"/>
      <point x="104" y="657"/>
      <point x="104" y="645"/>
      <point x="103" y="634" type="curve" smooth="yes"/>
      <point x="102" y="624"/>
      <point x="99" y="615"/>
      <point x="96" y="606" type="curve" smooth="yes"/>
      <point x="93" y="597"/>
      <point x="89" y="588"/>
      <point x="84" y="580" type="curve" smooth="yes"/>
      <point x="79" y="572"/>
      <point x="73" y="565"/>
      <point x="67" y="557" type="curve" smooth="yes"/>
      <point x="61" y="549"/>
      <point x="55" y="542"/>
      <point x="49" y="536" type="curve"/>
      <point x="45" y="533"/>
      <point x="44" y="529"/>
      <point x="43" y="524" type="curve"/>
      <point x="43" y="522"/>
      <point x="42" y="520"/>
      <point x="43" y="518" type="curve" smooth="yes"/>
      <point x="44" y="516"/>
      <point x="46" y="514"/>
      <point x="48" y="512" type="curve"/>
      <point x="73" y="496" type="line"/>
      <point x="102" y="519"/>
      <point x="126" y="543"/>
      <point x="144" y="571" type="curve" smooth="yes"/>
      <point x="162" y="599"/>
      <point x="173" y="628"/>
      <point x="177" y="658" type="curve" smooth="yes"/>
      <point x="179" y="674"/>
      <point x="178" y="690"/>
      <point x="176" y="706" type="curve" smooth="yes"/>
      <point x="174" y="722"/>
      <point x="169" y="738"/>
      <point x="161" y="754" type="curve"/>
    </contour>
    <contour>
      <point x="256" y="732" type="line"/>
      <point x="247" y="728"/>
      <point x="241" y="722"/>
      <point x="240" y="714" type="curve"/>
      <point x="240" y="710"/>
      <point x="241" y="708"/>
      <point x="243" y="704" type="curve" smooth="yes"/>
      <point x="249" y="691"/>
      <point x="252" y="679"/>
      <point x="254" y="668" type="curve" smooth="yes"/>
      <point x="256" y="657"/>
      <point x="256" y="645"/>
      <point x="255" y="634" type="curve" smooth="yes"/>
      <point x="254" y="624"/>
      <point x="251" y="615"/>
      <point x="248" y="606" type="curve" smooth="yes"/>
      <point x="245" y="597"/>
      <point x="241" y="588"/>
      <point x="236" y="580" type="curve" smooth="yes"/>
      <point x="231" y="572"/>
      <point x="225" y="565"/>
      <point x="219" y="557" type="curve" smooth="yes"/>
      <point x="213" y="549"/>
      <point x="207" y="542"/>
      <point x="201" y="536" type="curve"/>
      <point x="197" y="533"/>
      <point x="196" y="529"/>
      <point x="195" y="524" type="curve"/>
      <point x="195" y="522"/>
      <point x="194" y="520"/>
      <point x="195" y="518" type="curve" smooth="yes"/>
      <point x="196" y="516"/>
      <point x="198" y="514"/>
      <point x="200" y="512" type="curve"/>
      <point x="225" y="496" type="line"/>
      <point x="254" y="519"/>
      <point x="278" y="543"/>
      <point x="296" y="571" type="curve" smooth="yes"/>
      <point x="314" y="599"/>
      <point x="325" y="628"/>
      <point x="329" y="658" type="curve" smooth="yes"/>
      <point x="331" y="674"/>
      <point x="330" y="690"/>
      <point x="328" y="706" type="curve" smooth="yes"/>
      <point x="326" y="722"/>
      <point x="321" y="738"/>
      <point x="313" y="754" type="curve"/>
    </contour>
  </outline>
</glyph>
<glyph name="guilsinglright" format="1">
  <advance width="244"/>
  <unicode hex="203A"/>
  <note>
    guilsinglright
  </note>
  <outline>
    <contour>
      <point x="214" y="270" type="line"/>
      <point x="114" y="465" type="line"/>
      <point x="83" y="451" type="line"/>
      <point x="73" y="447"/>
      <point x="67" y="439"/>
      <point x="66" y="430" type="curve"/>
      <point x="65" y="424"/>
      <point x="66" y="420"/>
      <point x="69" y="414" type="curve" smooth="yes"/>
      <point x="133" y="283" type="line"/>
      <point x="137" y="274"/>
      <point x="140" y="269"/>
      <point x="144" y="265" type="curve"/>
      <point x="139" y="261"/>
      <point x="133" y="255"/>
      <point x="128" y="247" type="curve"/>
      <point x="33" y="116" type="line"/>
      <point x="29" y="110"/>
      <point x="27" y="105"/>
      <point x="26" y="99" type="curve"/>
      <point x="25" y="90"/>
      <point x="28" y="83"/>
      <point x="37" y="79" type="curve"/>
      <point x="64" y="65" type="line"/>
      <point x="213" y="259" type="line"/>
    </contour>
  </outline>
</glyph>
<glyph name="ring.case" format="1">
  <advance width="339"/>
  <note>
    ring.case
  </note>
  <outline>
    <contour>
      <point x="78" y="817"/>
      <point x="80" y="805"/>
      <point x="84" y="794" type="curve" smooth="yes"/>
      <point x="88" y="783"/>
      <point x="93" y="775"/>
      <point x="101" y="767" type="curve" smooth="yes"/>
      <point x="109" y="759"/>
      <point x="117" y="753"/>
      <point x="128" y="749" type="curve" smooth="yes"/>
      <point x="139" y="745"/>
      <point x="150" y="742"/>
      <point x="163" y="742" type="curve" smooth="yes"/>
      <point x="176" y="742"/>
      <point x="189" y="745"/>
      <point x="201" y="749" type="curve" smooth="yes"/>
      <point x="213" y="753"/>
      <point x="224" y="759"/>
      <point x="234" y="767" type="curve" smooth="yes"/>
      <point x="244" y="775"/>
      <point x="252" y="783"/>
      <point x="258" y="794" type="curve" smooth="yes"/>
      <point x="264" y="805"/>
      <point x="268" y="816"/>
      <point x="270" y="829" type="curve" smooth="yes"/>
      <point x="272" y="842"/>
      <point x="271" y="854"/>
      <point x="267" y="865" type="curve" smooth="yes"/>
      <point x="263" y="876"/>
      <point x="257" y="886"/>
      <point x="249" y="894" type="curve" smooth="yes"/>
      <point x="241" y="902"/>
      <point x="232" y="908"/>
      <point x="221" y="912" type="curve" smooth="yes"/>
      <point x="210" y="916"/>
      <point x="198" y="918"/>
      <point x="185" y="918" type="curve" smooth="yes"/>
      <point x="172" y="918"/>
      <point x="160" y="916"/>
      <point x="148" y="912" type="curve" smooth="yes"/>
      <point x="136" y="908"/>
      <point x="125" y="902"/>
      <point x="116" y="894" type="curve" smooth="yes"/>
      <point x="107" y="886"/>
      <point x="99" y="876"/>
      <point x="92" y="865" type="curve" smooth="yes"/>
      <point x="85" y="854"/>
      <point x="82" y="843"/>
      <point x="80" y="830" type="curve" smooth="yes"/>
    </contour>
    <contour>
      <point x="127" y="844"/>
      <point x="133" y="857"/>
      <point x="143" y="866" type="curve" smooth="yes"/>
      <point x="153" y="875"/>
      <point x="165" y="880"/>
      <point x="181" y="880" type="curve" smooth="yes"/>
      <point x="196" y="880"/>
      <point x="208" y="875"/>
      <point x="216" y="866" type="curve" smooth="yes"/>
      <point x="224" y="857"/>
      <point x="227" y="844"/>
      <point x="225" y="829" type="curve" smooth="yes"/>
      <point x="223" y="815"/>
      <point x="217" y="804"/>
      <point x="207" y="794" type="curve" smooth="yes"/>
      <point x="197" y="784"/>
      <point x="184" y="779"/>
      <point x="169" y="779" type="curve" smooth="yes"/>
      <point x="153" y="779"/>
      <point x="142" y="784"/>
      <point x="134" y="794" type="curve"/>
      <point x="126" y="803"/>
      <point x="123" y="815"/>
      <point x="125" y="829" type="curve" smooth="yes"/>
    </contour>
  </outline>
</glyph>
